Dinish-Bold.ufo
<glyph name="exclam" format="2">
  <advance width="254"/>
  <unicode hex="0021"/>
  <outline>
    <contour>
      <point x="55" y="707" type="line"/>
      <point x="200" y="707" type="line"/>
      <point x="175" y="236" type="line"/>
      <point x="80" y="236" type="line"/>
    </contour>
    <contour>
      <point x="60" y="133" type="line"/>
      <point x="195" y="133" type="line"/>
      <point x="195" y="0" type="line"/>
      <point x="60" y="0" type="line"/>
    </contour>
  </outline>
</glyph>
<glyph name="percent" format="2">
  <advance width="925"/>
  <unicode hex="0025"/>
  <outline>
    <contour>
      <point x="41" y="423" type="curve" smooth="yes"/>
      <point x="41" y="568" type="line" smooth="yes"/>
      <point x="41" y="659.142"/>
      <point x="84.94" y="713"/>
      <point x="179" y="713" type="curve" smooth="yes"/>
      <point x="276.067" y="713"/>
      <point x="316" y="662.129"/>
      <point x="316" y="568" type="curve" smooth="yes"/>
      <point x="316" y="423" type="line" smooth="yes"/>
      <point x="316" y="329.426"/>
      <point x="279.044" y="270"/>
      <point x="179" y="270" type="curve" smooth="yes"/>
      <point x="78.332" y="270"/>
      <point x="41" y="328.453"/>
    </contour>
    <contour>
      <point x="609" y="712" type="line"/>
      <point x="711" y="712" type="line"/>
      <point x="315" y="0" type="line"/>
      <point x="215" y="0" type="line"/>
    </contour>
    <contour>
      <point x="211" y="428" type="curve" smooth="yes"/>
      <point x="211" y="555" type="line" smooth="yes"/>
      <point x="211" y="580.161"/>
      <point x="214.208" y="623"/>
      <point x="179" y="623" type="curve" smooth="yes"/>
      <point x="144.451" y="623"/>
      <point x="146" y="580.092"/>
      <point x="146" y="555" type="curve" smooth="yes"/>
      <point x="146" y="428" type="line" smooth="yes"/>
      <point x="146" y="401.983"/>
      <point x="143.023" y="361"/>
      <point x="179" y="361" type="curve" smooth="yes"/>
      <point x="215.975" y="361"/>
      <point x="211" y="401.201"/>
    </contour>
    <contour>
      <point x="608" y="146" type="curve" smooth="yes"/>
      <point x="608" y="292" type="line" smooth="yes"/>
      <point x="608" y="382.698"/>
      <point x="652.792" y="436"/>
      <point x="746" y="436" type="curve" smooth="yes"/>
      <point x="841.438" y="436"/>
      <point x="884" y="385.457"/>
      <point x="884" y="292" type="curve" smooth="yes"/>
      <point x="884" y="146" type="line" smooth="yes"/>
      <point x="884" y="51.772"/>
      <point x="845.461" y="-6"/>
      <point x="746" y="-6" type="curve" smooth="yes"/>
      <point x="646.494" y="-6"/>
      <point x="608" y="51.632"/>
    </contour>
    <contour>
      <point x="778" y="152" type="curve" smooth="yes"/>
      <point x="778" y="279" type="line" smooth="yes"/>
      <point x="778" y="305.939"/>
      <point x="783.399" y="346"/>
      <point x="746" y="346" type="curve" smooth="yes"/>
      <point x="710.361" y="346"/>
      <point x="714" y="304.902"/>
      <point x="714" y="279" type="curve" smooth="yes"/>
      <point x="714" y="152" type="line" smooth="yes"/>
      <point x="714" y="125.053"/>
      <point x="708.64" y="85"/>
      <point x="746" y="85" type="curve" smooth="yes"/>
      <point x="783.63" y="85"/>
      <point x="778" y="124.255"/>
    </contour>
  </outline>
</glyph>
<glyph name="ampersand" format="2">
  <advance width="612"/>
  <unicode hex="0026"/>
  <outline>
    <contour>
      <point x="543" y="110" type="curve" smooth="yes"/>
      <point x="565" y="110" type="line"/>
      <point x="565" y="0" type="line"/>
      <point x="516" y="0" type="line" smooth="yes"/>
      <point x="492" y="0"/>
      <point x="473" y="4"/>
      <point x="459" y="13" type="curve" smooth="yes"/>
      <point x="445" y="22"/>
      <point x="428" y="38"/>
      <point x="410" y="63" type="curve" smooth="yes"/>
      <point x="406" y="69" type="line"/>
      <point x="381" y="40"/>
      <point x="354" y="19"/>
      <point x="327" y="7" type="curve" smooth="yes"/>
      <point x="300" y="-5"/>
      <point x="268" y="-11"/>
      <point x="233" y="-11" type="curve" smooth="yes"/>
      <point x="174" y="-11"/>
      <point x="128" y="6"/>
      <point x="95" y="40" type="curve" smooth="yes"/>
      <point x="62" y="74"/>
      <point x="46" y="119"/>
      <point x="46" y="175" type="curve" smooth="yes"/>
      <point x="46" y="214"/>
      <point x="56" y="251"/>
      <point x="75" y="284" type="curve" smooth="yes"/>
      <point x="94" y="317"/>
      <point x="126" y="352"/>
      <point x="172" y="390" type="curve"/>
      <point x="144" y="429"/>
      <point x="125" y="460"/>
      <point x="114" y="483" type="curve" smooth="yes"/>
      <point x="103" y="506"/>
      <point x="97" y="529"/>
      <point x="97" y="554" type="curve" smooth="yes"/>
      <point x="97" y="585"/>
      <point x="105" y="613"/>
      <point x="120" y="638" type="curve" smooth="yes"/>
      <point x="135" y="663"/>
      <point x="156" y="683"/>
      <point x="182" y="697" type="curve" smooth="yes"/>
      <point x="208" y="711"/>
      <point x="237" y="718"/>
      <point x="270" y="718" type="curve" smooth="yes"/>
      <point x="303" y="718"/>
      <point x="334" y="710"/>
      <point x="360" y="696" type="curve" smooth="yes"/>
      <point x="386" y="682"/>
      <point x="407" y="662"/>
      <point x="421" y="637" type="curve" smooth="yes"/>
      <point x="435" y="612"/>
      <point x="442" y="585"/>
      <point x="442" y="555" type="curve" smooth="yes"/>
      <point x="442" y="524"/>
      <point x="434" y="494"/>
      <point x="417" y="467" type="curve" smooth="yes"/>
      <point x="400" y="440"/>
      <point x="370" y="408"/>
      <point x="327" y="372" type="curve"/>
      <point x="416" y="252" type="line"/>
      <point x="486" y="340" type="line"/>
      <point x="566" y="269" type="line"/>
      <point x="481" y="163" type="line"/>
      <point x="501" y="136" type="line" smooth="yes"/>
      <point x="515" y="118"/>
      <point x="529" y="110"/>
    </contour>
    <contour>
      <point x="231" y="603" type="curve" smooth="yes"/>
      <point x="221" y="592"/>
      <point x="216" y="577"/>
      <point x="216" y="559" type="curve" smooth="yes"/>
      <point x="216" y="546"/>
      <point x="219" y="533"/>
      <point x="225" y="520" type="curve" smooth="yes"/>
      <point x="231" y="507"/>
      <point x="243" y="488"/>
      <point x="262" y="461" type="curve"/>
      <point x="287" y="482"/>
      <point x="304" y="500"/>
      <point x="313" y="514" type="curve" smooth="yes"/>
      <point x="322" y="528"/>
      <point x="326" y="543"/>
      <point x="326" y="559" type="curve" smooth="yes"/>
      <point x="326" y="577"/>
      <point x="320" y="592"/>
      <point x="310" y="603" type="curve" smooth="yes"/>
      <point x="300" y="614"/>
      <point x="287" y="620"/>
      <point x="271" y="620" type="curve" smooth="yes"/>
      <point x="255" y="620"/>
      <point x="241" y="614"/>
    </contour>
    <contour>
      <point x="291" y="111" type="curve" smooth="yes"/>
      <point x="305" y="120"/>
      <point x="322" y="135"/>
      <point x="341" y="158" type="curve"/>
      <point x="238" y="299" type="line"/>
      <point x="212" y="276"/>
      <point x="194" y="257"/>
      <point x="183" y="239" type="curve" smooth="yes"/>
      <point x="172" y="221"/>
      <point x="167" y="202"/>
      <point x="167" y="184" type="curve" smooth="yes"/>
      <point x="167" y="157"/>
      <point x="173" y="136"/>
      <point x="187" y="121" type="curve" smooth="yes"/>
      <point x="201" y="106"/>
      <point x="220" y="98"/>
      <point x="244" y="98" type="curve" smooth="yes"/>
      <point x="261" y="98"/>
      <point x="277" y="102"/>
    </contour>
  </outline>
</glyph>
<glyph name="hyphen" format="2">
  <advance width="402"/>
  <unicode hex="002D"/>
  <outline>
    <contour>
      <point x="60" y="413" type="line"/>
      <point x="342" y="413" type="line"/>
      <point x="342" y="295" type="line"/>
      <point x="60" y="295" type="line"/>
    </contour>
  </outline>
</glyph>
<glyph name="zero.tosf" format="2">
  <advance width="524"/>
  <unicode hex="0030"/>
  <outline>
    <contour>
      <point x="54" y="216" type="curve" smooth="yes"/>
      <point x="54" y="322" type="line" smooth="yes"/>
      <point x="54" y="470"/>
      <point x="124" y="544"/>
      <point x="264" y="544" type="curve" smooth="yes"/>
      <point x="405" y="544"/>
      <point x="475" y="470"/>
      <point x="475" y="322" type="curve" smooth="yes"/>
      <point x="475" y="216" type="line" smooth="yes"/>
      <point x="475" y="65"/>
      <point x="405" y="-10"/>
      <point x="264" y="-10" type="curve" smooth="yes"/>
      <point x="124" y="-10"/>
      <point x="54" y="65"/>
    </contour>
    <contour>
      <point x="323" y="145" type="curve" smooth="yes"/>
      <point x="335" y="164"/>
      <point x="341" y="195"/>
      <point x="341" y="238" type="curve" smooth="yes"/>
      <point x="341" y="295" type="line" smooth="yes"/>
      <point x="341" y="338"/>
      <point x="335" y="369"/>
      <point x="323" y="388" type="curve" smooth="yes"/>
      <point x="312" y="407"/>
      <point x="292" y="416"/>
      <point x="264" y="416" type="curve" smooth="yes"/>
      <point x="236" y="416"/>
      <point x="216" y="407"/>
      <point x="205" y="388" type="curve" smooth="yes"/>
      <point x="193" y="369"/>
      <point x="187" y="338"/>
      <point x="187" y="295" type="curve" smooth="yes"/>
      <point x="187" y="238" type="line" smooth="yes"/>
      <point x="187" y="195"/>
      <point x="193" y="164"/>
      <point x="205" y="145" type="curve" smooth="yes"/>
      <point x="216" y="126"/>
      <point x="236" y="117"/>
      <point x="264" y="117" type="curve" smooth="yes"/>
      <point x="292" y="117"/>
      <point x="312" y="126"/>
    </contour>
  </outline>
</glyph>
<glyph name="one.osf" format="2">
  <advance width="356"/>
  <unicode hex="0031"/>
  <outline>
    <contour>
      <point x="156" y="394" type="line"/>
      <point x="37" y="308" type="line"/>
      <point x="37" y="453" type="line"/>
      <point x="156" y="543" type="line"/>
      <point x="290" y="543" type="line"/>
      <point x="290" y="0" type="line"/>
      <point x="156" y="0" type="line"/>
    </contour>
  </outline>
</glyph>
<glyph name="one.tosf" format="2">
  <advance width="524"/>
  <unicode hex="0031"/>
  <outline>
    <contour>
      <point x="291" y="402" type="line"/>
      <point x="100" y="273" type="line"/>
      <point x="100" y="419" type="line"/>
      <point x="289" y="548" type="line"/>
      <point x="424" y="548" type="line"/>
      <point x="424" y="0" type="line"/>
      <point x="291" y="0" type="line"/>
    </contour>
  </outline>
</glyph>
<glyph name="three" format="2">
  <advance width="516"/>
  <unicode hex="0033"/>
  <outline>
    <contour>
      <point x="46" y="193" type="line"/>
      <point x="171" y="193" type="line"/>
      <point x="170.578" y="133.222"/>
      <point x="189.401" y="102"/>
      <point x="253" y="102" type="curve" smooth="yes"/>
      <point x="320.91" y="102"/>
      <point x="335" y="154.941"/>
      <point x="335" y="212" type="curve" smooth="yes"/>
      <point x="335" y="296.835"/>
      <point x="284.802" y="307.018"/>
      <point x="215.725" y="307.002" type="curve" smooth="yes"/>
      <point x="207" y="307" type="line"/>
      <point x="207" y="421" type="line"/>
      <point x="215.726" y="421.003" type="line" smooth="yes"/>
      <point x="291.003" y="421.032"/>
      <point x="324" y="434.231"/>
      <point x="324" y="521" type="curve" smooth="yes"/>
      <point x="324" y="568.334"/>
      <point x="299.242" y="604"/>
      <point x="249" y="604" type="curve" smooth="yes"/>
      <point x="188.886" y="604"/>
      <point x="173.666" y="565.23"/>
      <point x="174" y="512" type="curve"/>
      <point x="51" y="512" type="line"/>
      <point x="51" y="529" type="line" smooth="yes"/>
      <point x="51" y="653.753"/>
      <point x="134.366" y="718"/>
      <point x="254" y="718" type="curve" smooth="yes"/>
      <point x="383.03" y="718"/>
      <point x="454" y="644.236"/>
      <point x="454" y="516" type="curve" smooth="yes"/>
      <point x="454" y="457.891"/>
      <point x="422.994" y="402.981"/>
      <point x="371" y="376" type="curve"/>
      <point x="449.089" y="343.371"/>
      <point x="465" y="270.888"/>
      <point x="465" y="194" type="curve" smooth="yes"/>
      <point x="465" y="68.683"/>
      <point x="378.597" y="-11"/>
      <point x="255" y="-11" type="curve" smooth="yes"/>
      <point x="136.535" y="-11"/>
      <point x="46" y="42.494"/>
      <point x="46" y="171" type="curve" smooth="yes"/>
    </contour>
  </outline>
</glyph>
<glyph name="five" format="2">
  <advance width="508"/>
  <unicode hex="0035"/>
  <outline>
    <contour>
      <point x="51" y="178" type="curve"/>
      <point x="174" y="178" type="line"/>
      <point x="173.31" y="129.216"/>
      <point x="203.064" y="102"/>
      <point x="251" y="102" type="curve" smooth="yes"/>
      <point x="326.784" y="102"/>
      <point x="328.433" y="170.198"/>
      <point x="328.433" y="227.806" type="curve" smooth="yes"/>
      <point x="328.433" y="286.968"/>
      <point x="327.109" y="352"/>
      <point x="250" y="352" type="curve" smooth="yes"/>
      <point x="217.018" y="352"/>
      <point x="189.933" y="334.443"/>
      <point x="177" y="304" type="curve"/>
      <point x="61" y="304" type="line"/>
      <point x="61" y="707" type="line"/>
      <point x="443" y="707" type="line"/>
      <point x="443" y="592" type="line"/>
      <point x="177" y="592" type="line"/>
      <point x="177" y="432" type="line"/>
      <point x="205.309" y="454.875"/>
      <point x="241.994" y="465"/>
      <point x="278" y="465" type="curve" smooth="yes"/>
      <point x="404.656" y="465"/>
      <point x="458" y="378.624"/>
      <point x="458" y="261" type="curve" smooth="yes"/>
      <point x="458" y="195" type="line" smooth="yes"/>
      <point x="458" y="65.349"/>
      <point x="380.282" y="-11"/>
      <point x="251" y="-11" type="curve" smooth="yes"/>
      <point x="126.73" y="-11"/>
      <point x="50.71" y="49.21"/>
    </contour>
  </outline>
</glyph>
<glyph name="eight" format="2">
  <advance width="537"/>
  <unicode hex="0038"/>
  <outline>
    <contour>
      <point x="51" y="218" type="curve" smooth="yes"/>
      <point x="51" y="280.276"/>
      <point x="83.22" y="339.112"/>
      <point x="137" y="371" type="curve"/>
      <point x="77.469" y="405.672"/>
      <point x="65" y="460.573"/>
      <point x="65" y="525" type="curve" smooth="yes"/>
      <point x="65" y="641.893"/>
      <point x="155.691" y="718"/>
      <point x="269" y="718" type="curve" smooth="yes"/>
      <point x="399.331" y="718"/>
      <point x="474" y="635.145"/>
      <point x="474" y="507" type="curve" smooth="yes"/>
      <point x="474" y="451.638"/>
      <point x="448.639" y="400.424"/>
      <point x="401" y="371" type="curve"/>
      <point x="467.685" y="331.805"/>
      <point x="486" y="269.38"/>
      <point x="486" y="196" type="curve" smooth="yes"/>
      <point x="486" y="67.678"/>
      <point x="392.586" y="-11"/>
      <point x="268" y="-11" type="curve" smooth="yes"/>
      <point x="120.555" y="-11"/>
      <point x="51" y="81.903"/>
    </contour>
    <contour>
      <point x="194" y="506" type="line" smooth="yes"/>
      <point x="194" y="459.304"/>
      <point x="219.833" y="424"/>
      <point x="269" y="424" type="curve" smooth="yes"/>
      <point x="317.415" y="424"/>
      <point x="345" y="459.645"/>
      <point x="345" y="506" type="curve" smooth="yes"/>
      <point x="345" y="525" type="line" smooth="yes"/>
      <point x="345" y="570.161"/>
      <point x="315.164" y="604"/>
      <point x="269" y="604" type="curve" smooth="yes"/>
      <point x="223.262" y="604"/>
      <point x="194" y="569.414"/>
      <point x="194" y="525" type="curve" smooth="yes"/>
    </contour>
    <contour>
      <point x="181" y="197" type="line" smooth="yes"/>
      <point x="181" y="144.653"/>
      <point x="214.344" y="102"/>
      <point x="269" y="102" type="curve" smooth="yes"/>
      <point x="324.841" y="102"/>
      <point x="357" y="143.547"/>
      <point x="357" y="197" type="curve" smooth="yes"/>
      <point x="357" y="221" type="line" smooth="yes"/>
      <point x="357" y="274.347"/>
      <point x="323.726" y="313"/>
      <point x="269" y="313" type="curve" smooth="yes"/>
      <point x="215.551" y="313"/>
      <point x="181" y="273.12"/>
      <point x="181" y="221" type="curve" smooth="yes"/>
    </contour>
  </outline>
</glyph>
<glyph name="question" format="2">
  <advance width="461"/>
  <unicode hex="003F"/>
  <outline>
    <contour>
      <point x="161" y="250" type="line" smooth="yes"/>
      <point x="161" y="271.007"/>
      <point x="161.686" y="292.787"/>
      <point x="168" y="313" type="curve" smooth="yes"/>
      <point x="191.014" y="386.667"/>
      <point x="296" y="449.96"/>
      <point x="296" y="530" type="curve" smooth="yes"/>
      <point x="296" y="577.325"/>
      <point x="269.202" y="601"/>
      <point x="223" y="601" type="curve" smooth="yes"/>
      <point x="168.291" y="601"/>
      <point x="153.791" y="569.364"/>
      <point x="152" y="520" type="curve"/>
      <point x="28" y="520" type="line"/>
      <point x="29.975" y="647.344"/>
      <point x="99.325" y="717"/>
      <point x="227" y="717" type="curve" smooth="yes"/>
      <point x="335.27" y="717"/>
      <point x="427" y="649.42"/>
      <point x="427" y="535" type="curve" smooth="yes"/>
      <point x="427" y="446.681"/>
      <point x="365.165" y="385.886"/>
      <point x="315" y="319" type="curve" smooth="yes"/>
      <point x="306.376" y="307.501"/>
      <point x="297.848" y="295.681"/>
      <point x="293" y="282" type="curve" smooth="yes"/>
      <point x="284.941" y="259.256"/>
      <point x="288" y="221.335"/>
      <point x="288" y="198" type="curve"/>
      <point x="161" y="198" type="line"/>
    </contour>
    <contour>
      <point x="157" y="129" type="line"/>
      <point x="291" y="129" type="line"/>
      <point x="291" y="0" type="line"/>
      <point x="157" y="0" type="line"/>
    </contour>
  </outline>
</glyph>
<glyph name="at" format="2">
  <advance width="893"/>
  <unicode hex="0040"/>
  <outline>
    <contour>
      <point x="46" y="324" type="line" smooth="yes"/>
      <point x="46" y="560.299"/>
      <point x="214.023" y="715"/>
      <point x="447" y="715" type="curve" smooth="yes"/>
      <point x="675.786" y="715"/>
      <point x="848" y="562.54"/>
      <point x="848" y="329" type="curve" smooth="yes"/>
      <point x="848" y="257" type="line" smooth="yes"/>
      <point x="848" y="148.662"/>
      <point x="794.472" y="55"/>
      <point x="675" y="55" type="curve" smooth="yes"/>
      <point x="622.029" y="55"/>
      <point x="573.175" y="74.274"/>
      <point x="546" y="122" type="curve"/>
      <point x="520.457" y="70.795"/>
      <point x="468.868" y="55"/>
      <point x="415" y="55" type="curve" smooth="yes"/>
      <point x="298.311" y="55"/>
      <point x="260" y="135.236"/>
      <point x="260" y="241" type="curve" smooth="yes"/>
      <point x="260" y="331" type="line" smooth="yes"/>
      <point x="260" y="430.791"/>
      <point x="294.059" y="517"/>
      <point x="408" y="517" type="curve" smooth="yes"/>
      <point x="449.113" y="517"/>
      <point x="492.731" y="502.946"/>
      <point x="514" y="465" type="curve"/>
      <point x="514" y="506" type="line"/>
      <point x="626" y="506" type="line"/>
      <point x="626" y="214" type="line" smooth="yes"/>
      <point x="626" y="179.691"/>
      <point x="636.291" y="150"/>
      <point x="676" y="150" type="curve" smooth="yes"/>
      <point x="726.648" y="150"/>
      <point x="733.834" y="213.126"/>
      <point x="733.834" y="266.878" type="curve" smooth="yes"/>
      <point x="733.834" y="328" type="line" smooth="yes"/>
      <point x="733.834" y="506.486"/>
      <point x="624.715" y="612"/>
      <point x="447" y="612" type="curve" smooth="yes"/>
      <point x="267.845" y="612"/>
      <point x="161" y="505.155"/>
      <point x="161" y="326" type="curve" smooth="yes"/>
      <point x="161" y="253" type="line" smooth="yes"/>
      <point x="161" y="76.395"/>
      <point x="268.88" y="-37"/>
      <point x="447" y="-37" type="curve" smooth="yes"/>
      <point x="524.303" y="-37"/>
      <point x="590.309" y="-20.323"/>
      <point x="659" y="15" type="curve"/>
      <point x="705" y="-72" type="line"/>
      <point x="620.735" y="-120.465"/>
      <point x="543.994" y="-139"/>
      <point x="447" y="-139" type="curve" smooth="yes"/>
      <point x="214.023" y="-139"/>
      <point x="46" y="15.701"/>
      <point x="46" y="252" type="curve" smooth="yes"/>
    </contour>
    <contour>
      <point x="512" y="244" type="curve" smooth="yes"/>
      <point x="512" y="330" type="line" smooth="yes"/>
      <point x="512" y="376.662"/>
      <point x="498.488" y="421"/>
      <point x="444" y="421" type="curve" smooth="yes"/>
      <point x="390.588" y="421"/>
      <point x="375" y="377.239"/>
      <point x="375" y="331" type="curve" smooth="yes"/>
      <point x="375" y="247" type="line" smooth="yes"/>
      <point x="375" y="198.416"/>
      <point x="385.861" y="152"/>
      <point x="444" y="152" type="curve" smooth="yes"/>
      <point x="498.323" y="152"/>
      <point x="512" y="197.733"/>
    </contour>
  </outline>
</glyph>
<glyph name="J" format="2">
  <advance width="338"/>
  <unicode hex="004A"/>
  <anchor x="204" y="707" name="top"/>
  <outline>
    <contour>
      <point x="25" y="118" type="line"/>
      <point x="80" y="118" type="line" smooth="yes"/>
      <point x="101" y="118"/>
      <point x="115" y="123"/>
      <point x="124" y="133" type="curve" smooth="yes"/>
      <point x="133" y="143"/>
      <point x="137" y="159"/>
      <point x="137" y="184" type="curve" smooth="yes"/>
      <point x="137" y="707" type="line"/>
      <point x="272" y="707" type="line"/>
      <point x="272" y="162" type="line" smooth="yes"/>
      <point x="272" y="110"/>
      <point x="258" y="70"/>
      <point x="230" y="42" type="curve" smooth="yes"/>
      <point x="202" y="14"/>
      <point x="162" y="0"/>
      <point x="111" y="0" type="curve" smooth="yes"/>
      <point x="25" y="0" type="line"/>
    </contour>
  </outline>
</glyph>
<glyph name="N" format="2">
  <advance width="649"/>
  <unicode hex="004E"/>
  <anchor x="315" y="707" name="top"/>
  <outline>
    <contour>
      <point x="589" y="707" type="line"/>
      <point x="589" y="0" type="line"/>
      <point x="455" y="0" type="line"/>
      <point x="195" y="441" type="line"/>
      <point x="195" y="0" type="line"/>
      <point x="60" y="0" type="line"/>
      <point x="60" y="707" type="line"/>
      <point x="195" y="707" type="line"/>
      <point x="455" y="264" type="line"/>
      <point x="455" y="707" type="line"/>
    </contour>
  </outline>
</glyph>
<glyph name="O" format="2">
  <advance width="614"/>
  <unicode hex="004F"/>
  <anchor x="307" y="707" name="top"/>
  <outline>
    <contour>
      <point x="51" y="273" type="curve" smooth="yes"/>
      <point x="51" y="435" type="line" smooth="yes"/>
      <point x="51" y="623"/>
      <point x="137" y="717"/>
      <point x="308" y="717" type="curve" smooth="yes"/>
      <point x="387" y="717"/>
      <point x="449" y="695"/>
      <point x="495" y="651" type="curve" smooth="yes"/>
      <point x="541" y="607"/>
      <point x="563" y="535"/>
      <point x="563" y="435" type="curve" smooth="yes"/>
      <point x="563" y="273" type="line" smooth="yes"/>
      <point x="563" y="173"/>
      <point x="540" y="102"/>
      <point x="493" y="58" type="curve" smooth="yes"/>
      <point x="446" y="14"/>
      <point x="383" y="-8"/>
      <point x="304" y="-8" type="curve" smooth="yes"/>
      <point x="135" y="-8"/>
      <point x="51" y="85"/>
    </contour>
    <contour>
      <point x="399" y="151" type="curve" smooth="yes"/>
      <point x="419" y="177"/>
      <point x="429" y="218"/>
      <point x="429" y="275" type="curve" smooth="yes"/>
      <point x="429" y="428" type="line" smooth="yes"/>
      <point x="429" y="488"/>
      <point x="419" y="532"/>
      <point x="399" y="559" type="curve" smooth="yes"/>
      <point x="379" y="586"/>
      <point x="349" y="599"/>
      <point x="308" y="599" type="curve" smooth="yes"/>
      <point x="265" y="599"/>
      <point x="234" y="586"/>
      <point x="215" y="560" type="curve" smooth="yes"/>
      <point x="196" y="534"/>
      <point x="186" y="489"/>
      <point x="186" y="428" type="curve" smooth="yes"/>
      <point x="186" y="275" type="line" smooth="yes"/>
      <point x="186" y="217"/>
      <point x="196" y="176"/>
      <point x="215" y="150" type="curve" smooth="yes"/>
      <point x="234" y="124"/>
      <point x="265" y="112"/>
      <point x="308" y="112" type="curve" smooth="yes"/>
      <point x="349" y="112"/>
      <point x="379" y="125"/>
    </contour>
  </outline>
</glyph>
<glyph name="backslash" format="2">
  <advance width="414"/>
  <unicode hex="005C"/>
  <outline>
    <contour>
      <point x="46" y="712" type="line"/>
      <point x="152" y="712" type="line"/>
      <point x="369" y="-10" type="line"/>
      <point x="263" y="-10" type="line"/>
    </contour>
  </outline>
</glyph>
<glyph name="bracketright" format="2">
  <advance width="323"/>
  <unicode hex="005D"/>
  <outline>
    <contour>
      <point x="46" y="32" type="line"/>
      <point x="136" y="32" type="line"/>
      <point x="136" y="638" type="line"/>
      <point x="46" y="638" type="line"/>
      <point x="46" y="755" type="line"/>
      <point x="263" y="755" type="line"/>
      <point x="263" y="-86" type="line"/>
      <point x="46" y="-86" type="line"/>
    </contour>
  </outline>
</glyph>
<glyph name="f" format="2">
  <advance width="342"/>
  <unicode hex="0066"/>
  <anchor x="156" y="707" name="top"/>
  <outline>
    <contour>
      <point x="219" y="532" type="curve"/>
      <point x="314" y="532" type="line"/>
      <point x="314" y="443" type="line"/>
      <point x="219" y="443" type="line"/>
      <point x="219" y="0" type="line"/>
      <point x="93" y="0" type="line"/>
      <point x="93" y="443" type="line"/>
      <point x="37" y="443" type="line"/>
      <point x="37" y="532" type="line"/>
      <point x="93" y="532" type="line"/>
      <point x="93" y="564" type="line" smooth="yes"/>
      <point x="93" y="656.254"/>
      <point x="150.413" y="707"/>
      <point x="241" y="707" type="curve" smooth="yes"/>
      <point x="314" y="707" type="line"/>
      <point x="314" y="621" type="line"/>
      <point x="225.67" y="621"/>
      <point x="219" y="601.318"/>
    </contour>
  </outline>
</glyph>
<glyph name="g" format="2">
  <advance width="526"/>
  <unicode hex="0067"/>
  <anchor x="260" y="532" name="top"/>
  <outline>
    <contour>
      <point x="53" y="-13" type="curve"/>
      <point x="175" y="-13" type="line"/>
      <point x="182.412" y="-52.683"/>
      <point x="224.049" y="-68"/>
      <point x="260" y="-68" type="curve" smooth="yes"/>
      <point x="335.953" y="-68"/>
      <point x="347.546" y="-13.275"/>
      <point x="347.546" y="50.121" type="curve"/>
      <point x="347" y="96" type="line"/>
      <point x="317.029" y="57.916"/>
      <point x="269.365" y="41"/>
      <point x="222" y="41" type="curve" smooth="yes"/>
      <point x="94.846" y="41"/>
      <point x="46" y="148.955"/>
      <point x="46" y="261" type="curve" smooth="yes"/>
      <point x="46" y="319" type="line" smooth="yes"/>
      <point x="46" y="431.125"/>
      <point x="93.307" y="539"/>
      <point x="221" y="539" type="curve" smooth="yes"/>
      <point x="269.584" y="539"/>
      <point x="316.252" y="517.754"/>
      <point x="345" y="478" type="curve"/>
      <point x="345" y="532" type="line"/>
      <point x="471" y="532" type="line"/>
      <point x="471" y="39" type="line" smooth="yes"/>
      <point x="471" y="-92.775"/>
      <point x="383.548" y="-168"/>
      <point x="255" y="-168" type="curve" smooth="yes"/>
      <point x="154.481" y="-168"/>
      <point x="59.409" y="-125.365"/>
    </contour>
    <contour>
      <point x="345" y="265" type="curve" smooth="yes"/>
      <point x="345" y="314" type="line" smooth="yes"/>
      <point x="345" y="369.615"/>
      <point x="322.111" y="426"/>
      <point x="258" y="426" type="curve" smooth="yes"/>
      <point x="190.798" y="426"/>
      <point x="173" y="371.286"/>
      <point x="173" y="314" type="curve" smooth="yes"/>
      <point x="173" y="265" type="line" smooth="yes"/>
      <point x="173" y="209.476"/>
      <point x="188.907" y="154"/>
      <point x="255" y="154" type="curve" smooth="yes"/>
      <point x="322.775" y="154"/>
      <point x="345" y="205.074"/>
    </contour>
  </outline>
</glyph>
<glyph name="q" format="2">
  <advance width="526"/>
  <unicode hex="0071"/>
  <outline>
    <contour>
      <point x="345" y="48" type="line"/>
      <point x="316" y="12"/>
      <point x="275" y="-6"/>
      <point x="222" y="-6" type="curve" smooth="yes"/>
      <point x="171" y="-6"/>
      <point x="129" y="12"/>
      <point x="96" y="49" type="curve" smooth="yes"/>
      <point x="63" y="86"/>
      <point x="46" y="140"/>
      <point x="46" y="214" type="curve" smooth="yes"/>
      <point x="46" y="319" type="line" smooth="yes"/>
      <point x="46" y="393"/>
      <point x="63" y="448"/>
      <point x="96" y="484" type="curve" smooth="yes"/>
      <point x="129" y="520"/>
      <point x="172" y="539"/>
      <point x="225" y="539" type="curve" smooth="yes"/>
      <point x="276" y="539"/>
      <point x="317" y="518"/>
      <point x="347" y="478" type="curve"/>
      <point x="347" y="532" type="line"/>
      <point x="471" y="532" type="line"/>
      <point x="471" y="-160" type="line"/>
      <point x="345" y="-160" type="line"/>
    </contour>
    <contour>
      <point x="322" y="135" type="curve" smooth="yes"/>
      <point x="338" y="154"/>
      <point x="345" y="182"/>
      <point x="345" y="218" type="curve" smooth="yes"/>
      <point x="345" y="314" type="line" smooth="yes"/>
      <point x="345" y="350"/>
      <point x="337" y="378"/>
      <point x="322" y="397" type="curve" smooth="yes"/>
      <point x="307" y="416"/>
      <point x="285" y="426"/>
      <point x="258" y="426" type="curve" smooth="yes"/>
      <point x="201" y="426"/>
      <point x="173" y="388"/>
      <point x="173" y="314" type="curve" smooth="yes"/>
      <point x="173" y="218" type="line" smooth="yes"/>
      <point x="173" y="144"/>
      <point x="200" y="106"/>
      <point x="255" y="106" type="curve" smooth="yes"/>
      <point x="284" y="106"/>
      <point x="306" y="116"/>
    </contour>
  </outline>
</glyph>
<glyph name="s" format="2">
  <advance width="485"/>
  <unicode hex="0073"/>
  <anchor x="243" y="532" name="top"/>
  <outline>
    <contour>
      <point x="92" y="38" type="curve" smooth="yes"/>
      <point x="55" y="68"/>
      <point x="37" y="108"/>
      <point x="37" y="158" type="curve" smooth="yes"/>
      <point x="37" y="162" type="line"/>
      <point x="156" y="162" type="line"/>
      <point x="156" y="160" type="line" smooth="yes"/>
      <point x="156" y="140"/>
      <point x="164" y="124"/>
      <point x="180" y="113" type="curve" smooth="yes"/>
      <point x="196" y="102"/>
      <point x="217" y="96"/>
      <point x="243" y="96" type="curve" smooth="yes"/>
      <point x="271" y="96"/>
      <point x="292" y="101"/>
      <point x="308" y="111" type="curve" smooth="yes"/>
      <point x="324" y="121"/>
      <point x="332" y="136"/>
      <point x="332" y="156" type="curve" smooth="yes"/>
      <point x="332" y="172"/>
      <point x="326" y="185"/>
      <point x="314" y="194" type="curve" smooth="yes"/>
      <point x="302" y="203"/>
      <point x="283" y="209"/>
      <point x="256" y="213" type="curve" smooth="yes"/>
      <point x="200" y="222" type="line" smooth="yes"/>
      <point x="147" y="231"/>
      <point x="107" y="247"/>
      <point x="82" y="271" type="curve" smooth="yes"/>
      <point x="57" y="295"/>
      <point x="44" y="330"/>
      <point x="44" y="374" type="curve" smooth="yes"/>
      <point x="44" y="425"/>
      <point x="63" y="464"/>
      <point x="100" y="494" type="curve" smooth="yes"/>
      <point x="137" y="524"/>
      <point x="185" y="539"/>
      <point x="243" y="539" type="curve" smooth="yes"/>
      <point x="283" y="539"/>
      <point x="318" y="532"/>
      <point x="348" y="519" type="curve" smooth="yes"/>
      <point x="378" y="506"/>
      <point x="401" y="487"/>
      <point x="418" y="463" type="curve" smooth="yes"/>
      <point x="435" y="439"/>
      <point x="443" y="413"/>
      <point x="443" y="384" type="curve" smooth="yes"/>
      <point x="443" y="378" type="line"/>
      <point x="326" y="378" type="line"/>
      <point x="326" y="381" type="line" smooth="yes"/>
      <point x="326" y="399"/>
      <point x="319" y="414"/>
      <point x="304" y="424" type="curve" smooth="yes"/>
      <point x="289" y="434"/>
      <point x="269" y="439"/>
      <point x="243" y="439" type="curve" smooth="yes"/>
      <point x="217" y="439"/>
      <point x="197" y="434"/>
      <point x="183" y="424" type="curve" smooth="yes"/>
      <point x="169" y="414"/>
      <point x="163" y="400"/>
      <point x="163" y="383" type="curve" smooth="yes"/>
      <point x="163" y="367"/>
      <point x="168" y="355"/>
      <point x="179" y="346" type="curve" smooth="yes"/>
      <point x="190" y="337"/>
      <point x="206" y="331"/>
      <point x="230" y="328" type="curve" smooth="yes"/>
      <point x="293" y="318" type="line" smooth="yes"/>
      <point x="346" y="310"/>
      <point x="386" y="294"/>
      <point x="413" y="269" type="curve" smooth="yes"/>
      <point x="440" y="244"/>
      <point x="453" y="209"/>
      <point x="453" y="165" type="curve" smooth="yes"/>
      <point x="453" y="110"/>
      <point x="433" y="68"/>
      <point x="393" y="38" type="curve" smooth="yes"/>
      <point x="353" y="8"/>
      <point x="302" y="-6"/>
      <point x="239" y="-6" type="curve" smooth="yes"/>
      <point x="178" y="-6"/>
      <point x="129" y="8"/>
    </contour>
  </outline>
</glyph>
<glyph name="y" format="2">
  <advance width="493"/>
  <unicode hex="0079"/>
  <anchor x="240" y="532" name="top"/>
  <outline>
    <contour>
      <point x="484" y="532" type="line"/>
      <point x="283" y="-46" type="line" smooth="yes"/>
      <point x="247.143" y="-149.11"/>
      <point x="180.609" y="-158.005"/>
      <point x="82.675" y="-158.005" type="curve"/>
      <point x="78" y="-158" type="line"/>
      <point x="78" y="-44" type="line"/>
      <point x="110.837" y="-44.317" type="line"/>
      <point x="155.68" y="-44.317"/>
      <point x="178.597" y="-31.37"/>
      <point x="189" y="14" type="curve"/>
      <point x="9" y="532" type="line"/>
      <point x="143" y="532" type="line"/>
      <point x="248" y="198" type="line"/>
      <point x="354" y="532" type="line"/>
    </contour>
  </outline>
</glyph>
<glyph name="sterling" format="2">
  <advance width="477"/>
  <unicode hex="00A3"/>
  <outline>
    <contour>
      <point x="44" y="0" type="line"/>
      <point x="44" y="111" type="line"/>
      <point x="85.427" y="131.593"/>
      <point x="89" y="163.74"/>
      <point x="89" y="206" type="curve" smooth="yes"/>
      <point x="89" y="283" type="line"/>
      <point x="26" y="283" type="line"/>
      <point x="26" y="399" type="line"/>
      <point x="89" y="399" type="line"/>
      <point x="89" y="524" type="line" smooth="yes"/>
      <point x="89" y="643.532"/>
      <point x="151.293" y="717"/>
      <point x="274" y="717" type="curve" smooth="yes"/>
      <point x="381.976" y="717"/>
      <point x="452.027" y="658.012"/>
      <point x="452" y="547" type="curve"/>
      <point x="327" y="547" type="line"/>
      <point x="327.074" y="578.707"/>
      <point x="309.254" y="603"/>
      <point x="276" y="603" type="curve" smooth="yes"/>
      <point x="238.815" y="603"/>
      <point x="223" y="573.591"/>
      <point x="223" y="540" type="curve" smooth="yes"/>
      <point x="223" y="399" type="line"/>
      <point x="356" y="399" type="line"/>
      <point x="356" y="283" type="line"/>
      <point x="223.325" y="283" type="line"/>
      <point x="223.325" y="233.938" type="line" smooth="yes"/>
      <point x="223.325" y="191.529"/>
      <point x="219.559" y="147.283"/>
      <point x="191" y="116" type="curve"/>
      <point x="452" y="116" type="line"/>
      <point x="452" y="0" type="line"/>
    </contour>
  </outline>
</glyph>
<glyph name="brokenbar" format="2">
  <advance width="310"/>
  <unicode hex="00A6"/>
  <outline>
    <contour>
      <point x="96" y="758" type="line"/>
      <point x="214" y="758" type="line"/>
      <point x="214" y="397" type="line"/>
      <point x="96" y="397" type="line"/>
    </contour>
    <contour>
      <point x="96" y="276" type="line"/>
      <point x="214" y="276" type="line"/>
      <point x="214" y="-86" type="line"/>
      <point x="96" y="-86" type="line"/>
    </contour>
  </outline>
</glyph>
<glyph name="ordfeminine" format="2">
  <advance width="361"/>
  <unicode hex="00AA"/>
  <outline>
    <contour>
      <point x="272" y="737" type="curve" smooth="yes"/>
      <point x="295" y="718"/>
      <point x="307" y="688"/>
      <point x="307" y="649" type="curve" smooth="yes"/>
      <point x="307" y="440" type="line"/>
      <point x="219" y="440" type="line"/>
      <point x="219" y="466" type="line"/>
      <point x="207" y="455"/>
      <point x="196" y="447"/>
      <point x="185" y="443" type="curve" smooth="yes"/>
      <point x="174" y="439"/>
      <point x="160" y="436"/>
      <point x="144" y="436" type="curve" smooth="yes"/>
      <point x="111" y="436"/>
      <point x="85" y="445"/>
      <point x="66" y="464" type="curve" smooth="yes"/>
      <point x="47" y="483"/>
      <point x="37" y="509"/>
      <point x="37" y="540" type="curve" smooth="yes"/>
      <point x="37" y="569"/>
      <point x="48" y="591"/>
      <point x="68" y="608" type="curve" smooth="yes"/>
      <point x="88" y="625"/>
      <point x="117" y="634"/>
      <point x="153" y="634" type="curve" smooth="yes"/>
      <point x="216" y="634" type="line"/>
      <point x="216" y="654" type="line" smooth="yes"/>
      <point x="216" y="682"/>
      <point x="201" y="696"/>
      <point x="171" y="696" type="curve" smooth="yes"/>
      <point x="159" y="696"/>
      <point x="149" y="694"/>
      <point x="142" y="688" type="curve" smooth="yes"/>
      <point x="135" y="682"/>
      <point x="131" y="675"/>
      <point x="131" y="665" type="curve" smooth="yes"/>
      <point x="131" y="663" type="line"/>
      <point x="46" y="663" type="line"/>
      <point x="46" y="665" type="line" smooth="yes"/>
      <point x="46" y="697"/>
      <point x="57" y="721"/>
      <point x="80" y="739" type="curve" smooth="yes"/>
      <point x="103" y="757"/>
      <point x="133" y="766"/>
      <point x="172" y="766" type="curve" smooth="yes"/>
      <point x="216" y="766"/>
      <point x="249" y="756"/>
    </contour>
    <contour>
      <point x="204" y="522" type="curve" smooth="yes"/>
      <point x="212" y="530"/>
      <point x="216" y="541"/>
      <point x="216" y="557" type="curve" smooth="yes"/>
      <point x="216" y="572" type="line"/>
      <point x="167" y="572" type="line" smooth="yes"/>
      <point x="139" y="572"/>
      <point x="125" y="563"/>
      <point x="125" y="543" type="curve" smooth="yes"/>
      <point x="125" y="533"/>
      <point x="128" y="526"/>
      <point x="135" y="520" type="curve" smooth="yes"/>
      <point x="142" y="514"/>
      <point x="152" y="511"/>
      <point x="166" y="511" type="curve" smooth="yes"/>
      <point x="184" y="511"/>
      <point x="196" y="514"/>
    </contour>
    <contour>
      <point x="170" y="867" type="move" smooth="yes"/>
    </contour>
  </outline>
</glyph>
<glyph name="plusminus" format="2">
  <advance width="541"/>
  <unicode hex="00B1"/>
  <outline>
    <contour>
      <point x="213" y="288" type="line"/>
      <point x="49" y="288" type="line"/>
      <point x="49" y="404" type="line"/>
      <point x="213" y="404" type="line"/>
      <point x="213" y="568" type="line"/>
      <point x="330" y="568" type="line"/>
      <point x="330" y="404" type="line"/>
      <point x="493" y="404" type="line"/>
      <point x="493" y="288" type="line"/>
      <point x="330" y="288" type="line"/>
      <point x="330" y="124" type="line"/>
      <point x="213" y="124" type="line"/>
    </contour>
    <contour>
      <point x="49" y="80" type="line"/>
      <point x="493" y="80" type="line"/>
      <point x="493" y="-37" type="line"/>
      <point x="49" y="-37" type="line"/>
    </contour>
  </outline>
</glyph>
<glyph name="onesuperior" format="2">
  <advance width="259"/>
  <unicode hex="00B9"/>
  <outline>
    <contour>
      <point x="99" y="755" type="line"/>
      <point x="30" y="706" type="line"/>
      <point x="30" y="818" type="line"/>
      <point x="100" y="869" type="line"/>
      <point x="205" y="869" type="line"/>
      <point x="205" y="440" type="line"/>
      <point x="99" y="440" type="line"/>
    </contour>
  </outline>
</glyph>
<glyph name="Aring" format="2">
  <advance width="620"/>
  <unicode hex="00C5"/>
  <anchor x="310" y="707" name="Anchor-0"/>
  <outline>
    <contour>
      <point x="431" y="137" type="line"/>
      <point x="188" y="137" type="line"/>
      <point x="145" y="0" type="line"/>
      <point x="4" y="0" type="line"/>
      <point x="255" y="707" type="line"/>
      <point x="240" y="717"/>
      <point x="228" y="728"/>
      <point x="219" y="744" type="curve" smooth="yes"/>
      <point x="210" y="760"/>
      <point x="206" y="778"/>
      <point x="206" y="797" type="curve" smooth="yes"/>
      <point x="206" y="828"/>
      <point x="216" y="853"/>
      <point x="236" y="873" type="curve" smooth="yes"/>
      <point x="256" y="893"/>
      <point x="281" y="903"/>
      <point x="311" y="903" type="curve" smooth="yes"/>
      <point x="341" y="903"/>
      <point x="367" y="893"/>
      <point x="387" y="873" type="curve" smooth="yes"/>
      <point x="407" y="853"/>
      <point x="417" y="828"/>
      <point x="417" y="797" type="curve" smooth="yes"/>
      <point x="417" y="777"/>
      <point x="412" y="759"/>
      <point x="403" y="743" type="curve" smooth="yes"/>
      <point x="394" y="727"/>
      <point x="382" y="715"/>
      <point x="366" y="705" type="curve"/>
      <point x="616" y="0" type="line"/>
      <point x="474" y="0" type="line"/>
    </contour>
    <contour>
      <point x="278" y="833" type="curve" smooth="yes"/>
      <point x="269" y="823"/>
      <point x="264" y="811"/>
      <point x="264" y="797" type="curve" smooth="yes"/>
      <point x="264" y="783"/>
      <point x="269" y="772"/>
      <point x="278" y="762" type="curve" smooth="yes"/>
      <point x="287" y="752"/>
      <point x="298" y="748"/>
      <point x="311" y="748" type="curve" smooth="yes"/>
      <point x="325" y="748"/>
      <point x="337" y="752"/>
      <point x="346" y="762" type="curve" smooth="yes"/>
      <point x="355" y="772"/>
      <point x="359" y="783"/>
      <point x="359" y="797" type="curve" smooth="yes"/>
      <point x="359" y="811"/>
      <point x="355" y="823"/>
      <point x="346" y="833" type="curve" smooth="yes"/>
      <point x="337" y="843"/>
      <point x="325" y="847"/>
      <point x="311" y="847" type="curve" smooth="yes"/>
      <point x="297" y="847"/>
      <point x="287" y="843"/>
    </contour>
    <contour>
      <point x="395" y="249" type="line"/>
      <point x="309" y="520" type="line"/>
      <point x="224" y="249" type="line"/>
    </contour>
  </outline>
</glyph>
<glyph name="Egrave" format="2">
  <advance width="544"/>
  <unicode hex="00C8"/>
  <anchor x="274" y="707" name="Anchor-0"/>
  <outline>
    <contour>
      <point x="195" y="590" type="line"/>
      <point x="195" y="415" type="line"/>
      <point x="463" y="415" type="line"/>
      <point x="463" y="298" type="line"/>
      <point x="195" y="298" type="line"/>
      <point x="195" y="117" type="line"/>
      <point x="509" y="117" type="line"/>
      <point x="509" y="0" type="line"/>
      <point x="60" y="0" type="line"/>
      <point x="60" y="707" type="line"/>
      <point x="509" y="707" type="line"/>
      <point x="509" y="590" type="line"/>
    </contour>
    <contour>
      <point x="112" y="912" type="line"/>
      <point x="252" y="912" type="line"/>
      <point x="362" y="776" type="line"/>
      <point x="253" y="776" type="line"/>
    </contour>
  </outline>
</glyph>
<glyph name="Eth" format="2">
  <advance width="685"/>
  <unicode hex="00D0"/>
  <outline>
    <contour>
      <point x="549" y="641" type="curve" smooth="yes"/>
      <point x="594" y="597"/>
      <point x="617" y="526"/>
      <point x="617" y="426" type="curve" smooth="yes"/>
      <point x="617" y="282" type="line" smooth="yes"/>
      <point x="617" y="182"/>
      <point x="593" y="110"/>
      <point x="547" y="66" type="curve" smooth="yes"/>
      <point x="501" y="22"/>
      <point x="438" y="0"/>
      <point x="359" y="0" type="curve" smooth="yes"/>
      <point x="114" y="0" type="line"/>
      <point x="114" y="301" type="line"/>
      <point x="39" y="301" type="line"/>
      <point x="39" y="419" type="line"/>
      <point x="114" y="419" type="line"/>
      <point x="114" y="707" type="line"/>
      <point x="363" y="707" type="line" smooth="yes"/>
      <point x="442" y="707"/>
      <point x="504" y="685"/>
    </contour>
    <contour>
      <point x="483" y="419" type="line" smooth="yes"/>
      <point x="483" y="479"/>
      <point x="473" y="522"/>
      <point x="453" y="549" type="curve" smooth="yes"/>
      <point x="433" y="576"/>
      <point x="403" y="590"/>
      <point x="362" y="590" type="curve" smooth="yes"/>
      <point x="248" y="590" type="line"/>
      <point x="248" y="419" type="line"/>
      <point x="369" y="419" type="line"/>
      <point x="369" y="301" type="line"/>
      <point x="248" y="301" type="line"/>
      <point x="248" y="117" type="line"/>
      <point x="362" y="117" type="line" smooth="yes"/>
      <point x="402" y="117"/>
      <point x="433" y="130"/>
      <point x="453" y="157" type="curve" smooth="yes"/>
      <point x="473" y="184"/>
      <point x="483" y="226"/>
      <point x="483" y="283" type="curve" smooth="yes"/>
    </contour>
  </outline>
</glyph>
<glyph name="germandbls" format="2">
  <advance width="536"/>
  <unicode hex="00DF"/>
  <outline>
    <contour>
      <point x="260" y="101.799" type="line"/>
      <point x="286.222" y="101.799" type="line" smooth="yes"/>
      <point x="343.805" y="101.799"/>
      <point x="365" y="137.905"/>
      <point x="365" y="236" type="curve" smooth="yes"/>
      <point x="365" y="343.568"/>
      <point x="346.731" y="370.867"/>
      <point x="274.744" y="370.867" type="curve" smooth="yes"/>
      <point x="260" y="370.867" type="line"/>
      <point x="260" y="476.01" type="line"/>
      <point x="274.753" y="476.01" type="line" smooth="yes"/>
      <point x="335.201" y="476.01"/>
      <point x="355" y="492.291"/>
      <point x="355" y="542" type="curve" smooth="yes"/>
      <point x="355" y="595.88"/>
      <point x="317.883" y="608"/>
      <point x="271" y="608" type="curve" smooth="yes"/>
      <point x="211.648" y="608"/>
      <point x="182" y="581.392"/>
      <point x="182" y="521" type="curve" smooth="yes"/>
      <point x="182" y="0" type="line"/>
      <point x="55" y="0" type="line"/>
      <point x="55" y="510" type="line" smooth="yes"/>
      <point x="55" y="653.914"/>
      <point x="129.139" y="717"/>
      <point x="270" y="717" type="curve" smooth="yes"/>
      <point x="380.763" y="717"/>
      <point x="481" y="673.792"/>
      <point x="481" y="548" type="curve" smooth="yes"/>
      <point x="481" y="497.417"/>
      <point x="465.326" y="457.612"/>
      <point x="423" y="428" type="curve"/>
      <point x="458.753" y="398.185"/>
      <point x="490" y="335.624"/>
      <point x="490" y="233" type="curve" smooth="yes"/>
      <point x="490" y="35.839"/>
      <point x="453.718" y="-3.963"/>
      <point x="273.994" y="-3.963" type="curve" smooth="yes"/>
      <point x="260" y="-3.963" type="line"/>
    </contour>
  </outline>
</glyph>
<glyph name="eth" format="2">
  <advance width="521"/>
  <unicode hex="00F0"/>
  <outline>
    <contour>
      <point x="475" y="223" type="curve" smooth="yes"/>
      <point x="475" y="82.669"/>
      <point x="406.374" y="-11"/>
      <point x="259" y="-11" type="curve" smooth="yes"/>
      <point x="117.909" y="-11"/>
      <point x="46" y="77.756"/>
      <point x="46" y="214" type="curve" smooth="yes"/>
      <point x="46" y="259" type="line" smooth="yes"/>
      <point x="46" y="372.086"/>
      <point x="97.251" y="476"/>
      <point x="224" y="476" type="curve" smooth="yes"/>
      <point x="248.199" y="476"/>
      <point x="273.096" y="472.897"/>
      <point x="295" y="462" type="curve"/>
      <point x="233" y="550" type="line"/>
      <point x="128" y="517" type="line"/>
      <point x="102" y="598" type="line"/>
      <point x="183" y="623" type="line"/>
      <point x="121" y="712" type="line"/>
      <point x="252" y="712" type="line"/>
      <point x="292" y="655" type="line"/>
      <point x="390" y="686" type="line"/>
      <point x="416" y="605" type="line"/>
      <point x="343" y="583" type="line"/>
      <point x="436.277" y="453.31"/>
      <point x="475" y="386.126"/>
    </contour>
    <contour>
      <point x="356" y="261" type="line" smooth="yes"/>
      <point x="356" y="325.55"/>
      <point x="331.92" y="374"/>
      <point x="261" y="374" type="curve" smooth="yes"/>
      <point x="189.834" y="374"/>
      <point x="164" y="329.133"/>
      <point x="164" y="263" type="curve" smooth="yes"/>
      <point x="164" y="216" type="line" smooth="yes"/>
      <point x="164" y="149.528"/>
      <point x="187.431" y="99"/>
      <point x="261" y="99" type="curve" smooth="yes"/>
      <point x="334.089" y="99"/>
      <point x="356" y="151.953"/>
      <point x="356" y="217" type="curve" smooth="yes"/>
    </contour>
  </outline>
</glyph>
<glyph name="Aogonek" format="2">
  <advance width="620"/>
  <unicode hex="0104"/>
  <outline>
    <component base="A" xOffset="0" yOffset="0"/>
    <contour>
      <point x="503" y="13" type="line"/>
      <point x="605" y="13" type="line"/>
      <point x="605" y="1" type="line"/>
      <point x="513" y="-49" type="line"/>
      <point x="538" y="-75"/>
      <point x="563" y="-72"/>
      <point x="605" y="-73" type="curve"/>
      <point x="605" y="-162" type="line"/>
      <point x="542" y="-161"/>
      <point x="491" y="-144"/>
      <point x="454" y="-109" type="curve" smooth="yes"/>
      <point x="434" y="-92"/>
      <point x="421" y="-69"/>
      <point x="411" y="-41" type="curve"/>
    </contour>
  </outline>
</glyph>
<glyph name="aogonek" format="2">
  <advance width="513"/>
  <unicode hex="0105"/>
  <outline>
    <component base="a" xOffset="0" yOffset="0"/>
    <contour>
      <point x="365" y="13" type="line"/>
      <point x="457" y="13" type="line"/>
      <point x="457" y="1" type="line"/>
      <point x="365" y="-49" type="line"/>
      <point x="390" y="-75"/>
      <point x="415" y="-72"/>
      <point x="457" y="-73" type="curve"/>
      <point x="457" y="-162" type="line"/>
      <point x="394" y="-161"/>
      <point x="343" y="-144"/>
      <point x="306" y="-109" type="curve" smooth="yes"/>
      <point x="286" y="-92"/>
      <point x="273" y="-69"/>
      <point x="263" y="-41" type="curve"/>
    </contour>
  </outline>
</glyph>
<glyph name="dcroat" format="2">
  <advance width="526"/>
  <unicode hex="0111"/>
  <outline>
    <contour>
      <point x="238" y="654" type="line"/>
      <point x="526" y="654" type="line"/>
      <point x="526" y="581" type="line"/>
      <point x="238" y="581" type="line"/>
    </contour>
    <component base="d"/>
  </outline>
</glyph>
<glyph name="eogonek" format="2">
  <advance width="529"/>
  <unicode hex="0119"/>
  <outline>
    <component base="e"/>
    <contour>
      <point x="213" y="-76" type="curve"/>
      <point x="325" y="43" type="line"/>
      <point x="416.877" y="43" type="line"/>
      <point x="315" y="-84" type="line"/>
      <point x="331.033" y="-101.782"/>
      <point x="375.076" y="-108.211"/>
      <point x="407" y="-108" type="curve"/>
      <point x="407" y="-197" type="line"/>
      <point x="321.512" y="-197"/>
      <point x="243.142" y="-161.217"/>
    </contour>
  </outline>
</glyph>
<glyph name="iogonek" format="2">
  <advance width="246"/>
  <unicode hex="012F"/>
  <outline>
    <component base="i"/>
    <contour>
      <point x="92" y="13" type="line"/>
      <point x="184" y="13" type="line"/>
      <point x="184" y="1" type="line"/>
      <point x="92" y="-49" type="line"/>
      <point x="117" y="-75"/>
      <point x="142" y="-72"/>
      <point x="184" y="-73" type="curve"/>
      <point x="184" y="-162" type="line"/>
      <point x="121" y="-161"/>
      <point x="70" y="-144"/>
      <point x="33" y="-109" type="curve" smooth="yes"/>
      <point x="13" y="-92"/>
      <point x="0" y="-69"/>
      <point x="-10" y="-41" type="curve"/>
    </contour>
  </outline>
</glyph>
<glyph name="ij" format="2">
  <advance width="551"/>
  <unicode hex="0133"/>
  <outline>
    <contour>
      <point x="35" y="707" type="line"/>
      <point x="162" y="707" type="line"/>
      <point x="162" y="605" type="line"/>
      <point x="35" y="605" type="line"/>
    </contour>
    <contour>
      <point x="330" y="707" type="line"/>
      <point x="457" y="707" type="line"/>
      <point x="457" y="605" type="line"/>
      <point x="330" y="605" type="line"/>
    </contour>
    <contour>
      <point x="96" y="-127" type="curve" smooth="yes"/>
      <point x="62" y="-100"/>
      <point x="42" y="-61"/>
      <point x="39" y="-13" type="curve"/>
      <point x="161" y="-13" type="line"/>
      <point x="164" y="-29"/>
      <point x="173" y="-43"/>
      <point x="188" y="-53" type="curve" smooth="yes"/>
      <point x="203" y="-63"/>
      <point x="222" y="-68"/>
      <point x="246" y="-68" type="curve" smooth="yes"/>
      <point x="304" y="-68"/>
      <point x="333" y="-35"/>
      <point x="333" y="31" type="curve" smooth="yes"/>
      <point x="333" y="96" type="line"/>
      <point x="304" y="59"/>
      <point x="262" y="41"/>
      <point x="208" y="41" type="curve" smooth="yes"/>
      <point x="157" y="41"/>
      <point x="115" y="59"/>
      <point x="82" y="96" type="curve" smooth="yes"/>
      <point x="49" y="133"/>
      <point x="32" y="187"/>
      <point x="32" y="261" type="curve" smooth="yes"/>
      <point x="32" y="532" type="line"/>
      <point x="159" y="532" type="line"/>
      <point x="159" y="265" type="line" smooth="yes"/>
      <point x="159" y="191"/>
      <point x="186" y="154"/>
      <point x="241" y="154" type="curve" smooth="yes"/>
      <point x="270" y="154"/>
      <point x="292" y="163"/>
      <point x="308" y="182" type="curve" smooth="yes"/>
      <point x="324" y="201"/>
      <point x="331" y="229"/>
      <point x="331" y="265" type="curve" smooth="yes"/>
      <point x="331" y="532" type="line"/>
      <point x="457" y="532" type="line"/>
      <point x="457" y="39" type="line" smooth="yes"/>
      <point x="457" y="-24"/>
      <point x="438" y="-75"/>
      <point x="400" y="-112" type="curve" smooth="yes"/>
      <point x="362" y="-149"/>
      <point x="309" y="-168"/>
      <point x="241" y="-168" type="curve" smooth="yes"/>
      <point x="179" y="-168"/>
      <point x="130" y="-154"/>
    </contour>
  </outline>
</glyph>
<glyph name="lslash" format="2">
  <advance width="293"/>
  <unicode hex="0142"/>
  <outline>
    <component base="l" xOffset="0" yOffset="0"/>
    <contour>
      <point x="-10" y="280" type="line"/>
      <point x="-10" y="393" type="line"/>
      <point x="282" y="530" type="line"/>
      <point x="282" y="416" type="line"/>
    </contour>
  </outline>
</glyph>
<glyph name="Eng" format="2">
  <advance width="649"/>
  <unicode hex="014A"/>
  <outline>
    <contour>
      <point x="546" y="-131" type="curve" smooth="yes"/>
      <point x="574" y="-103"/>
      <point x="589" y="-64"/>
      <point x="589" y="0" type="curve"/>
      <point x="589" y="707" type="line"/>
      <point x="455" y="707" type="line"/>
      <point x="455" y="264" type="line"/>
      <point x="195" y="707" type="line"/>
      <point x="60" y="707" type="line"/>
      <point x="60" y="0" type="line"/>
      <point x="195" y="0" type="line"/>
      <point x="195" y="441" type="line"/>
      <point x="455" y="0" type="line"/>
      <point x="455" y="-25"/>
      <point x="451" y="-41"/>
      <point x="443" y="-50" type="curve" smooth="yes"/>
      <point x="435" y="-59"/>
      <point x="423" y="-63"/>
      <point x="405" y="-63" type="curve" smooth="yes"/>
      <point x="369" y="-63" type="line"/>
      <point x="369" y="-173" type="line"/>
      <point x="427" y="-173" type="line" smooth="yes"/>
      <point x="478" y="-173"/>
      <point x="518" y="-159"/>
    </contour>
  </outline>
</glyph>
<glyph name="eng" format="2">
  <advance width="532"/>
  <unicode hex="014B"/>
  <outline>
    <contour>
      <point x="55" y="532" type="line"/>
      <point x="179" y="532" type="line"/>
      <point x="179" y="484" type="line"/>
      <point x="210.993" y="520.01"/>
      <point x="257.05" y="539"/>
      <point x="305" y="539" type="curve" smooth="yes"/>
      <point x="421.558" y="539"/>
      <point x="477" y="456.364"/>
      <point x="477" y="347" type="curve" smooth="yes"/>
      <point x="477" y="0" type="line"/>
      <point x="350" y="0" type="line"/>
      <point x="350" y="332" type="line" smooth="yes"/>
      <point x="350" y="384.734"/>
      <point x="324.066" y="426"/>
      <point x="267" y="426" type="curve" smooth="yes"/>
      <point x="211.51" y="426"/>
      <point x="182" y="384.168"/>
      <point x="182" y="332" type="curve" smooth="yes"/>
      <point x="182" y="0" type="line"/>
      <point x="55" y="0" type="line"/>
    </contour>
    <contour>
      <point x="315" y="-173" type="curve" smooth="yes"/>
      <point x="257" y="-173" type="line"/>
      <point x="257" y="-63" type="line"/>
      <point x="323.629" y="-63"/>
      <point x="350.107" y="-45.063"/>
      <point x="350" y="0" type="curve"/>
      <point x="477" y="0" type="line"/>
      <point x="477.055" y="-108.695"/>
      <point x="430.338" y="-173"/>
    </contour>
  </outline>
</glyph>
<glyph name="scaron" format="2">
  <advance width="485"/>
  <unicode hex="0161"/>
  <outline>
    <contour>
      <point x="37" y="162" type="curve"/>
      <point x="156" y="162" type="line"/>
      <point x="156" y="112.605"/>
      <point x="200.489" y="96"/>
      <point x="243" y="96" type="curve" smooth="yes"/>
      <point x="282.431" y="96"/>
      <point x="332" y="107.199"/>
      <point x="332" y="156" type="curve" smooth="yes"/>
      <point x="332" y="265.465"/>
      <point x="44" y="158.224"/>
      <point x="44" y="374" type="curve" smooth="yes"/>
      <point x="44" y="486.376"/>
      <point x="141.912" y="539"/>
      <point x="243" y="539" type="curve" smooth="yes"/>
      <point x="342.918" y="539"/>
      <point x="443" y="490.611"/>
      <point x="443" y="378" type="curve"/>
      <point x="326" y="378" type="line"/>
      <point x="326" y="426.568"/>
      <point x="284.126" y="439"/>
      <point x="243" y="439" type="curve" smooth="yes"/>
      <point x="206.107" y="439"/>
      <point x="163" y="427.882"/>
      <point x="163" y="383" type="curve" smooth="yes"/>
      <point x="163" y="273.522"/>
      <point x="453" y="381.198"/>
      <point x="453" y="165" type="curve" smooth="yes"/>
      <point x="453" y="41.652"/>
      <point x="347.76" y="-6"/>
      <point x="239" y="-6" type="curve" smooth="yes"/>
      <point x="131.459" y="-6"/>
      <point x="37" y="42.675"/>
    </contour>
    <contour>
      <point x="78" y="738" type="line"/>
      <point x="178" y="738" type="line"/>
      <point x="243" y="658" type="line"/>
      <point x="307" y="738" type="line"/>
      <point x="407" y="738" type="line"/>
      <point x="289" y="584" type="line"/>
      <point x="196" y="584" type="line"/>
    </contour>
  </outline>
</glyph>
<glyph name="Uogonek" format="2">
  <advance width="628"/>
  <unicode hex="0172"/>
  <outline>
    <component base="U"/>
    <contour>
      <point x="385" y="53" type="line"/>
      <point x="467" y="53" type="line"/>
      <point x="467" y="41" type="line"/>
      <point x="375" y="-49" type="line"/>
      <point x="400" y="-75"/>
      <point x="425" y="-72"/>
      <point x="467" y="-73" type="curve"/>
      <point x="467" y="-162" type="line"/>
      <point x="404" y="-161"/>
      <point x="353" y="-144"/>
      <point x="316" y="-109" type="curve" smooth="yes"/>
      <point x="296" y="-92"/>
      <point x="283" y="-69"/>
      <point x="273" y="-41" type="curve"/>
    </contour>
  </outline>
</glyph>
<glyph name="uogonek" format="2">
  <advance width="532"/>
  <unicode hex="0173"/>
  <outline>
    <component base="u"/>
    <contour>
      <point x="335" y="55" type="line"/>
      <point x="417" y="55" type="line"/>
      <point x="417" y="43" type="line"/>
      <point x="325" y="-49" type="line"/>
      <point x="350" y="-75"/>
      <point x="375" y="-72"/>
      <point x="417" y="-73" type="curve"/>
      <point x="417" y="-162" type="line"/>
      <point x="354" y="-161"/>
      <point x="303" y="-144"/>
      <point x="266" y="-109" type="curve" smooth="yes"/>
      <point x="246" y="-92"/>
      <point x="233" y="-69"/>
      <point x="223" y="-41" type="curve"/>
    </contour>
  </outline>
</glyph>
<glyph name="Ydieresis" format="2">
  <advance width="553"/>
  <unicode hex="0178"/>
  <outline>
    <contour>
      <point x="344" y="291" type="line"/>
      <point x="344" y="0" type="line"/>
      <point x="210" y="0" type="line"/>
      <point x="210" y="290" type="line"/>
      <point x="4" y="707" type="line"/>
      <point x="151" y="707" type="line"/>
      <point x="276" y="420" type="line"/>
      <point x="402" y="707" type="line"/>
      <point x="550" y="707" type="line"/>
    </contour>
    <contour>
      <point x="123" y="894" type="line"/>
      <point x="232" y="894" type="line"/>
      <point x="232" y="775" type="line"/>
      <point x="123" y="775" type="line"/>
    </contour>
    <contour>
      <point x="319" y="894" type="line"/>
      <point x="429" y="894" type="line"/>
      <point x="429" y="775" type="line"/>
      <point x="319" y="775" type="line"/>
    </contour>
  </outline>
</glyph>
<glyph name="Zcaron" format="2">
  <advance width="517"/>
  <unicode hex="017D"/>
  <anchor x="258" y="707" name="top"/>
  <outline>
    <contour>
      <point x="489" y="118" type="line"/>
      <point x="489" y="0" type="line"/>
      <point x="31" y="0" type="line"/>
      <point x="31" y="118" type="line"/>
      <point x="335" y="590" type="line"/>
      <point x="37" y="590" type="line"/>
      <point x="37" y="707" type="line"/>
      <point x="480" y="707" type="line"/>
      <point x="480" y="590" type="line"/>
      <point x="177" y="118" type="line"/>
    </contour>
    <contour>
      <point x="93" y="912" type="line"/>
      <point x="194" y="912" type="line"/>
      <point x="258" y="833" type="line"/>
      <point x="323" y="912" type="line"/>
      <point x="422" y="912" type="line"/>
      <point x="304" y="758" type="line"/>
      <point x="211" y="758" type="line"/>
    </contour>
  </outline>
</glyph>
<glyph name="zcaron" format="2">
  <advance width="465"/>
  <unicode hex="017E"/>
  <outline>
    <contour>
      <point x="420" y="426" type="line"/>
      <point x="184" y="106" type="line"/>
      <point x="420" y="106" type="line"/>
      <point x="420" y="0" type="line"/>
      <point x="46" y="0" type="line"/>
      <point x="46" y="106" type="line"/>
      <point x="282" y="426" type="line"/>
      <point x="46" y="426" type="line"/>
      <point x="46" y="532" type="line"/>
      <point x="420" y="532" type="line"/>
    </contour>
    <contour>
      <point x="68" y="738" type="line"/>
      <point x="168" y="738" type="line"/>
      <point x="232" y="658" type="line"/>
      <point x="297" y="738" type="line"/>
      <point x="396" y="738" type="line"/>
      <point x="279" y="584" type="line"/>
      <point x="185" y="584" type="line"/>
    </contour>
  </outline>
</glyph>
<glyph name="Oogonek" format="2">
  <advance width="614"/>
  <unicode hex="01EA"/>
  <outline>
    <component base="O" xOffset="0" yOffset="0"/>
    <contour>
      <point x="385" y="53" type="line"/>
      <point x="467" y="53" type="line"/>
      <point x="467" y="41" type="line"/>
      <point x="375" y="-49" type="line"/>
      <point x="400" y="-75"/>
      <point x="425" y="-72"/>
      <point x="467" y="-73" type="curve"/>
      <point x="467" y="-162" type="line"/>
      <point x="404" y="-161"/>
      <point x="353" y="-144"/>
      <point x="316" y="-109" type="curve" smooth="yes"/>
      <point x="296" y="-92"/>
      <point x="283" y="-69"/>
      <point x="273" y="-41" type="curve"/>
    </contour>
  </outline>
</glyph>
<glyph name="jcaron" format="2">
  <advance width="246"/>
  <unicode hex="01F0"/>
  <outline>
    <component base="caroncmb" xOffset="123"/>
    <contour>
      <point x="-34" y="-50" type="line"/>
      <point x="9" y="-50" type="line" smooth="yes"/>
      <point x="27" y="-50"/>
      <point x="40" y="-46"/>
      <point x="48" y="-36" type="curve" smooth="yes"/>
      <point x="56" y="-26"/>
      <point x="60" y="-11"/>
      <point x="60" y="10" type="curve" smooth="yes"/>
      <point x="60" y="532" type="line"/>
      <point x="186" y="532" type="line"/>
      <point x="186" y="2" type="line" smooth="yes"/>
      <point x="186" y="-50"/>
      <point x="172" y="-90"/>
      <point x="144" y="-118" type="curve" smooth="yes"/>
      <point x="116" y="-146"/>
      <point x="77" y="-160"/>
      <point x="26" y="-160" type="curve" smooth="yes"/>
      <point x="-34" y="-160" type="line"/>
    </contour>
  </outline>
</glyph>
<glyph name="breve" format="2">
  <advance width="512"/>
  <unicode hex="028D"/>
  <outline>
    <contour>
      <point x="255" y="568" type="curve" smooth="yes"/>
      <point x="155" y="568"/>
      <point x="103" y="625"/>
      <point x="103" y="729" type="curve" smooth="yes"/>
      <point x="103" y="743" type="line"/>
      <point x="182" y="743" type="line"/>
      <point x="182" y="729" type="line" smooth="yes"/>
      <point x="182" y="669"/>
      <point x="206" y="640"/>
      <point x="255" y="640" type="curve" smooth="yes"/>
      <point x="304" y="640"/>
      <point x="328" y="669"/>
      <point x="328" y="729" type="curve" smooth="yes"/>
      <point x="328" y="743" type="line"/>
      <point x="407" y="743" type="line"/>
      <point x="407" y="729" type="line" smooth="yes"/>
      <point x="407" y="625"/>
      <point x="355" y="568"/>
    </contour>
  </outline>
</glyph>
<glyph name="dotaccent" format="2">
  <advance width="512"/>
  <unicode hex="02D9"/>
  <outline>
    <contour>
      <point x="191" y="712" type="line"/>
      <point x="325" y="712" type="line"/>
      <point x="325" y="610" type="line"/>
      <point x="191" y="610" type="line"/>
    </contour>
  </outline>
</glyph>
<glyph name="ogonek" format="2">
  <advance width="512"/>
  <unicode hex="02DB"/>
  <outline>
    <contour>
      <point x="345" y="13" type="line"/>
      <point x="427" y="13" type="line"/>
      <point x="427" y="1" type="line"/>
      <point x="335" y="-49" type="line"/>
      <point x="360" y="-75"/>
      <point x="385" y="-72"/>
      <point x="427" y="-73" type="curve"/>
      <point x="427" y="-162" type="line"/>
      <point x="364" y="-161"/>
      <point x="313" y="-144"/>
      <point x="276" y="-109" type="curve" smooth="yes"/>
      <point x="256" y="-92"/>
      <point x="243" y="-69"/>
      <point x="233" y="-41" type="curve"/>
    </contour>
  </outline>
</glyph>
<glyph name="ringcmb" format="2">
  <unicode hex="030A"/>
  <anchor x="0" y="532" name="_top"/>
  <outline>
    <contour>
      <point x="-105" y="696" type="curve" smooth="yes"/>
      <point x="-105" y="756.892"/>
      <point x="-61.54" y="803"/>
      <point x="0" y="803" type="curve" smooth="yes"/>
      <point x="61.54" y="803"/>
      <point x="105" y="756.892"/>
      <point x="105" y="696" type="curve" smooth="yes"/>
      <point x="105" y="636.038"/>
      <point x="59.962" y="591"/>
      <point x="0" y="591" type="curve" smooth="yes"/>
      <point x="-59.962" y="591"/>
      <point x="-105" y="636.038"/>
    </contour>
    <contour>
      <point x="48" y="696" type="curve" smooth="yes"/>
      <point x="48" y="723.396"/>
      <point x="28.018" y="746"/>
      <point x="0" y="746" type="curve" smooth="yes"/>
      <point x="-29.105" y="746"/>
      <point x="-47" y="724.102"/>
      <point x="-47" y="696" type="curve" smooth="yes"/>
      <point x="-47" y="670.84"/>
      <point x="-25.723" y="647"/>
      <point x="0" y="647" type="curve" smooth="yes"/>
      <point x="26.093" y="647"/>
      <point x="48" y="670.191"/>
    </contour>
  </outline>
</glyph>
<glyph name="caroncmb" format="2">
  <unicode hex="030C"/>
  <outline>
    <contour>
      <point x="-165" y="738" type="line"/>
      <point x="-65" y="738" type="line"/>
      <point x="0" y="658" type="line"/>
      <point x="65" y="738" type="line"/>
      <point x="164" y="738" type="line"/>
      <point x="46" y="584" type="line"/>
      <point x="-47" y="584" type="line"/>
    </contour>
  </outline>
</glyph>
<glyph name="alpha" format="2">
  <advance width="644"/>
  <unicode hex="03B1"/>
  <outline>
    <contour>
      <point x="104" y="48" type="curve" smooth="yes"/>
      <point x="143" y="12"/>
      <point x="195" y="-6"/>
      <point x="262" y="-6" type="curve" smooth="yes"/>
      <point x="328" y="-6"/>
      <point x="381" y="12"/>
      <point x="419" y="48" type="curve" smooth="yes"/>
      <point x="425" y="54"/>
      <point x="430" y="60"/>
      <point x="435" y="67" type="curve"/>
      <point x="437" y="65" type="line" smooth="yes"/>
      <point x="472" y="33"/>
      <point x="518" y="16"/>
      <point x="578" y="16" type="curve"/>
      <point x="578" y="122" type="line"/>
      <point x="527" y="124"/>
      <point x="501" y="158"/>
      <point x="501" y="223" type="curve" smooth="yes"/>
      <point x="501" y="309" type="line" smooth="yes"/>
      <point x="501" y="374"/>
      <point x="527" y="408"/>
      <point x="578" y="410" type="curve"/>
      <point x="578" y="517" type="line"/>
      <point x="518" y="517"/>
      <point x="472" y="499"/>
      <point x="437" y="467" type="curve" smooth="yes"/>
      <point x="435" y="466" type="line"/>
      <point x="430" y="472"/>
      <point x="425" y="478"/>
      <point x="419" y="484" type="curve" smooth="yes"/>
      <point x="381" y="520"/>
      <point x="328" y="539"/>
      <point x="262" y="539" type="curve" smooth="yes"/>
      <point x="195" y="539"/>
      <point x="143" y="520"/>
      <point x="104" y="484" type="curve" smooth="yes"/>
      <point x="65" y="448"/>
      <point x="46" y="392"/>
      <point x="46" y="316" type="curve" smooth="yes"/>
      <point x="46" y="217" type="line" smooth="yes"/>
      <point x="46" y="141"/>
      <point x="65" y="84"/>
    </contour>
    <contour>
      <point x="350" y="218" type="line" smooth="yes"/>
      <point x="350" y="144"/>
      <point x="321" y="106"/>
      <point x="262" y="106" type="curve" smooth="yes"/>
      <point x="202" y="106"/>
      <point x="172" y="144"/>
      <point x="172" y="218" type="curve" smooth="yes"/>
      <point x="172" y="314" type="line" smooth="yes"/>
      <point x="172" y="388"/>
      <point x="202" y="426"/>
      <point x="262" y="426" type="curve" smooth="yes"/>
      <point x="321" y="426"/>
      <point x="350" y="388"/>
      <point x="350" y="314" type="curve" smooth="yes"/>
    </contour>
  </outline>
</glyph>
<glyph name="Djecyr" format="2">
  <advance width="696"/>
  <unicode hex="0402"/>
  <anchor x="224" y="0" name="b.cedilla"/>
  <anchor x="254" y="-86" name="bottom"/>
  <anchor x="230" y="776" name="top"/>
  <outline>
    <contour>
      <point x="6" y="707" type="line"/>
      <point x="502" y="707" type="line"/>
      <point x="502" y="590" type="line"/>
      <point x="322" y="590" type="line"/>
      <point x="322" y="439" type="line"/>
      <point x="414" y="439" type="line" smooth="yes"/>
      <point x="555" y="439"/>
      <point x="645" y="355"/>
      <point x="645" y="223" type="curve" smooth="yes"/>
      <point x="645" y="85"/>
      <point x="557" y="0"/>
      <point x="414" y="0" type="curve" smooth="yes"/>
      <point x="376" y="0" type="line"/>
      <point x="376" y="117" type="line"/>
      <point x="407" y="117" type="line" smooth="yes"/>
      <point x="474" y="117"/>
      <point x="511" y="155"/>
      <point x="511" y="223" type="curve" smooth="yes"/>
      <point x="511" y="284"/>
      <point x="471" y="321"/>
      <point x="407" y="321" type="curve" smooth="yes"/>
      <point x="322" y="321" type="line"/>
      <point x="322" y="0" type="line"/>
      <point x="186" y="0" type="line"/>
      <point x="186" y="590" type="line"/>
      <point x="6" y="590" type="line"/>
    </contour>
  </outline>
</glyph>
<glyph name="Eukrcyr" format="2">
  <advance width="612"/>
  <unicode hex="0404"/>
  <guideline x="305" y="0" angle="90" name="h1"/>
  <anchor x="305" y="776" name="top"/>
  <outline>
    <contour>
      <point x="429" y="234" type="line"/>
      <point x="561" y="234" type="line"/>
      <point x="561" y="227" type="line" smooth="yes"/>
      <point x="561" y="69"/>
      <point x="459" y="-8"/>
      <point x="308" y="-8" type="curve" smooth="yes"/>
      <point x="125" y="-8"/>
      <point x="51" y="100"/>
      <point x="51" y="273" type="curve" smooth="yes"/>
      <point x="51" y="435" type="line" smooth="yes"/>
      <point x="51" y="609"/>
      <point x="127" y="717"/>
      <point x="310" y="717" type="curve" smooth="yes"/>
      <point x="461" y="717"/>
      <point x="563" y="636"/>
      <point x="563" y="483" type="curve" smooth="yes"/>
      <point x="563" y="475" type="line"/>
      <point x="429" y="475" type="line"/>
      <point x="429" y="483" type="line" smooth="yes"/>
      <point x="429" y="555"/>
      <point x="384" y="599"/>
      <point x="309" y="599" type="curve" smooth="yes"/>
      <point x="204" y="599"/>
      <point x="186" y="514"/>
      <point x="186" y="428" type="curve" smooth="yes"/>
      <point x="186" y="416" type="line"/>
      <point x="391" y="416" type="line"/>
      <point x="391" y="298" type="line"/>
      <point x="186" y="298" type="line"/>
      <point x="186" y="275" type="line" smooth="yes"/>
      <point x="186" y="189"/>
      <point x="210" y="112"/>
      <point x="311" y="112" type="curve" smooth="yes"/>
      <point x="388" y="112"/>
      <point x="429" y="154"/>
      <point x="429" y="230" type="curve" smooth="yes"/>
    </contour>
  </outline>
</glyph>
<glyph name="Dzhecyr" format="2">
  <advance width="608"/>
  <unicode hex="040F"/>
  <outline>
    <contour>
      <point x="61.412" y="-0.376" type="line"/>
      <point x="61.412" y="116.621" type="line"/>
      <point x="547.997" y="116.621" type="line"/>
      <point x="547.997" y="-0.376" type="line"/>
    </contour>
    <contour>
      <point x="237.229" y="-169.821" type="line"/>
      <point x="237.229" y="117.268" type="line"/>
      <point x="371.229" y="117.27" type="line"/>
      <point x="371.229" y="-169.821" type="line"/>
    </contour>
    <contour>
      <point x="414" y="0" type="line"/>
      <point x="414" y="707" type="line"/>
      <point x="548" y="707" type="line"/>
      <point x="548" y="0" type="line"/>
    </contour>
    <contour>
      <point x="60.836" y="0" type="line"/>
      <point x="60.836" y="707" type="line"/>
      <point x="194.836" y="707" type="line"/>
      <point x="194.836" y="0" type="line"/>
    </contour>
  </outline>
</glyph>
<glyph name="Decyr" format="2">
  <advance width="703"/>
  <unicode hex="0414"/>
  <outline>
    <contour>
      <point x="334" y="0" type="line"/>
      <point x="558" y="0" type="line"/>
      <point x="558" y="-170" type="line"/>
      <point x="692" y="-170" type="line"/>
      <point x="692" y="117" type="line"/>
      <point x="334" y="117" type="line"/>
    </contour>
    <contour>
      <point x="41" y="0" type="line"/>
      <point x="209" y="0"/>
      <point x="273" y="249"/>
      <point x="290" y="490" type="curve" smooth="yes"/>
      <point x="305" y="707" type="line"/>
      <point x="171" y="707" type="line"/>
      <point x="157" y="507" type="line" smooth="yes"/>
      <point x="137" y="223"/>
      <point x="87" y="117"/>
      <point x="41" y="117" type="curve"/>
    </contour>
    <contour>
      <point x="483" y="0" type="line"/>
      <point x="617" y="0" type="line"/>
      <point x="617" y="707" type="line"/>
      <point x="483" y="707" type="line"/>
    </contour>
    <contour>
      <point x="234" y="590" type="line"/>
      <point x="498" y="590" type="line"/>
      <point x="498" y="707" type="line"/>
      <point x="234" y="707" type="line"/>
    </contour>
    <contour>
      <point x="214" y="0" type="line"/>
      <point x="354" y="0" type="line"/>
      <point x="354" y="117" type="line"/>
      <point x="214" y="117" type="line"/>
    </contour>
    <contour>
      <point x="11" y="-170" type="line"/>
      <point x="145" y="-170" type="line"/>
      <point x="145" y="0" type="line"/>
      <point x="234" y="0" type="line"/>
      <point x="234" y="117" type="line"/>
      <point x="11" y="117" type="line"/>
    </contour>
  </outline>
</glyph>
<glyph name="Zhecyr" format="2">
  <advance width="1001"/>
  <unicode hex="0416"/>
  <guideline x="248" y="0" angle="90" name="vertical"/>
  <guideline x="0" y="707" angle="0" name="horizontal"/>
  <guideline x="872" y="0" angle="90" name="vertical"/>
  <guideline x="0" y="707" angle="0" name="horizontal"/>
  <anchor x="872" y="707" name="top"/>
  <outline>
    <contour>
      <point x="28" y="707" type="line"/>
      <point x="189" y="707" type="line"/>
      <point x="404" y="416" type="line"/>
      <point x="433" y="416" type="line"/>
      <point x="433" y="707" type="line"/>
      <point x="568" y="707" type="line"/>
      <point x="568" y="416" type="line"/>
      <point x="597" y="416" type="line"/>
      <point x="812" y="707" type="line"/>
      <point x="973" y="707" type="line"/>
      <point x="724" y="394" type="line"/>
      <point x="991" y="0" type="line"/>
      <point x="836" y="0" type="line"/>
      <point x="629" y="299" type="line"/>
      <point x="568" y="299" type="line"/>
      <point x="568" y="0" type="line"/>
      <point x="433" y="0" type="line"/>
      <point x="433" y="299" type="line"/>
      <point x="372" y="299" type="line"/>
      <point x="165" y="0" type="line"/>
      <point x="10" y="0" type="line"/>
      <point x="277" y="394" type="line"/>
    </contour>
  </outline>
</glyph>
<glyph name="Icyr" format="2">
  <advance width="649"/>
  <unicode hex="0418"/>
  <guideline x="315" y="0" angle="90" name="h1"/>
  <anchor x="315" y="776" name="top"/>
  <outline>
    <contour>
      <point x="60" y="0" type="line"/>
      <point x="194" y="0" type="line"/>
      <point x="429" y="411" type="line" smooth="yes"/>
      <point x="441" y="431"/>
      <point x="451" y="452"/>
      <point x="459" y="472" type="curve"/>
      <point x="463" y="472" type="line"/>
      <point x="455" y="430"/>
      <point x="454" y="391"/>
      <point x="454" y="351" type="curve" smooth="yes"/>
      <point x="454" y="0" type="line"/>
      <point x="589" y="0" type="line"/>
      <point x="589" y="707" type="line"/>
      <point x="454" y="707" type="line"/>
      <point x="218" y="294" type="line" smooth="yes"/>
      <point x="206" y="272"/>
      <point x="194" y="250"/>
      <point x="185" y="227" type="curve"/>
      <point x="181" y="227" type="line"/>
      <point x="191" y="269"/>
      <point x="194" y="312"/>
      <point x="194" y="354" type="curve" smooth="yes"/>
      <point x="194" y="707" type="line"/>
      <point x="60" y="707" type="line"/>
    </contour>
  </outline>
</glyph>
<glyph name="Kacyr" format="2">
  <advance width="624"/>
  <unicode hex="041A"/>
  <guideline x="0" y="707" angle="0" name="horizontal"/>
  <guideline x="303" y="0" angle="90" name="h1"/>
  <anchor x="303" y="776" name="top"/>
  <outline>
    <contour>
      <point x="175" y="299" type="line"/>
      <point x="336" y="299" type="line"/>
      <point x="336" y="416" type="line"/>
      <point x="175" y="416" type="line"/>
    </contour>
    <contour>
      <point x="60" y="0" type="line"/>
      <point x="195" y="0" type="line"/>
      <point x="195" y="707" type="line"/>
      <point x="60" y="707" type="line"/>
    </contour>
    <contour>
      <point x="463" y="0" type="line"/>
      <point x="618" y="0" type="line"/>
      <point x="336" y="416" type="line"/>
      <point x="250" y="307" type="line"/>
    </contour>
    <contour>
      <point x="210" y="308" type="line"/>
      <point x="283" y="308" type="line"/>
      <point x="600" y="707" type="line"/>
      <point x="439" y="707" type="line"/>
      <point x="210" y="397" type="line"/>
    </contour>
  </outline>
</glyph>
<glyph name="Elcyr" format="2">
  <advance width="618"/>
  <unicode hex="041B"/>
  <outline>
    <contour>
      <point x="424" y="0" type="line"/>
      <point x="558" y="0" type="line"/>
      <point x="558" y="707" type="line"/>
      <point x="424" y="707" type="line"/>
    </contour>
    <contour>
      <point x="21" y="-8" type="line"/>
      <point x="141" y="-8"/>
      <point x="202" y="67"/>
      <point x="213" y="227" type="curve" smooth="yes"/>
      <point x="246" y="707" type="line"/>
      <point x="112" y="707" type="line"/>
      <point x="81" y="262" type="line" smooth="yes"/>
      <point x="73" y="151"/>
      <point x="59" y="117"/>
      <point x="21" y="117" type="curve"/>
    </contour>
    <contour>
      <point x="175" y="590" type="line"/>
      <point x="439" y="590" type="line"/>
      <point x="439" y="707" type="line"/>
      <point x="175" y="707" type="line"/>
    </contour>
  </outline>
</glyph>
<glyph name="Ucyr" format="2">
  <advance width="554"/>
  <unicode hex="0423"/>
  <guideline x="269" y="0" angle="90" name="h1"/>
  <anchor x="269" y="776" name="top"/>
  <outline>
    <contour>
      <point x="70" y="-8" type="line"/>
      <point x="132" y="-8" type="line" smooth="yes"/>
      <point x="228" y="-8"/>
      <point x="286" y="35"/>
      <point x="326" y="136" type="curve" smooth="yes"/>
      <point x="550" y="707" type="line"/>
      <point x="402" y="707" type="line"/>
      <point x="234" y="285" type="line"/>
      <point x="224" y="246" type="line"/>
      <point x="184" y="153" type="line" smooth="yes"/>
      <point x="174" y="130"/>
      <point x="144" y="117"/>
      <point x="102" y="117" type="curve" smooth="yes"/>
      <point x="70" y="117" type="line"/>
    </contour>
    <contour>
      <point x="205" y="193" type="line"/>
      <point x="285" y="338" type="line"/>
      <point x="151" y="707" type="line"/>
      <point x="4" y="707" type="line"/>
    </contour>
  </outline>
</glyph>
<glyph name="Shacyr" format="2">
  <advance width="830"/>
  <unicode hex="0428"/>
  <outline>
    <contour>
      <point x="61.412" y="-0.375" type="line"/>
      <point x="61.412" y="116.621" type="line"/>
      <point x="769.631" y="116.621" type="line"/>
      <point x="769.631" y="-0.375" type="line"/>
    </contour>
    <contour>
      <point x="636" y="0" type="line"/>
      <point x="636" y="707" type="line"/>
      <point x="770" y="707" type="line"/>
      <point x="770" y="0" type="line"/>
    </contour>
    <contour>
      <point x="60.836" y="0" type="line"/>
      <point x="60.836" y="707" type="line"/>
      <point x="194.836" y="707" type="line"/>
      <point x="194.836" y="0" type="line"/>
    </contour>
    <contour>
      <point x="348.081" y="0" type="line"/>
      <point x="348.081" y="707" type="line"/>
      <point x="482.081" y="707" type="line"/>
      <point x="482.081" y="0" type="line"/>
    </contour>
  </outline>
</glyph>
<glyph name="Shchacyr" format="2">
  <advance width="892"/>
  <unicode hex="0429"/>
  <outline>
    <contour>
      <point x="60" y="707" type="line"/>
      <point x="194" y="707" type="line"/>
      <point x="194" y="117" type="line"/>
      <point x="348" y="117" type="line"/>
      <point x="348" y="707" type="line"/>
      <point x="482" y="707" type="line"/>
      <point x="482" y="117" type="line"/>
      <point x="636" y="117" type="line"/>
      <point x="636" y="707" type="line"/>
      <point x="770" y="707" type="line"/>
      <point x="770" y="117" type="line"/>
      <point x="882" y="117" type="line"/>
      <point x="882" y="-170" type="line"/>
      <point x="748" y="-170" type="line"/>
      <point x="748" y="-1" type="line"/>
      <point x="524" y="-1" type="line"/>
      <point x="524" y="0" type="line"/>
      <point x="60" y="0" type="line"/>
    </contour>
  </outline>
</glyph>
<glyph name="Hardcyr" format="2">
  <advance width="687"/>
  <unicode hex="042A"/>
  <outline>
    <contour>
      <point x="255" y="0" type="line"/>
      <point x="405" y="0" type="line" smooth="yes"/>
      <point x="548" y="0"/>
      <point x="636" y="85"/>
      <point x="636" y="223" type="curve" smooth="yes"/>
      <point x="636" y="355"/>
      <point x="546" y="439"/>
      <point x="405" y="439" type="curve" smooth="yes"/>
      <point x="255" y="439" type="line"/>
      <point x="255" y="321" type="line"/>
      <point x="398" y="321" type="line" smooth="yes"/>
      <point x="462" y="321"/>
      <point x="502" y="284"/>
      <point x="502" y="223" type="curve" smooth="yes"/>
      <point x="502" y="155"/>
      <point x="465" y="117"/>
      <point x="398" y="117" type="curve" smooth="yes"/>
      <point x="255" y="117" type="line"/>
    </contour>
    <contour>
      <point x="140" y="0" type="line"/>
      <point x="275" y="0" type="line"/>
      <point x="275" y="707" type="line"/>
      <point x="140" y="707" type="line"/>
    </contour>
    <contour>
      <point x="0" y="590" type="line"/>
      <point x="264" y="590" type="line"/>
      <point x="264" y="707" type="line"/>
      <point x="0" y="707" type="line"/>
    </contour>
  </outline>
</glyph>
<glyph name="Ereversedcyr" format="2">
  <advance width="614"/>
  <unicode hex="042D"/>
  <outline>
    <contour>
      <point x="562.004" y="273" type="line" smooth="yes"/>
      <point x="562.004" y="100.118"/>
      <point x="487.528" y="-8"/>
      <point x="305.004" y="-8" type="curve" smooth="yes"/>
      <point x="154.211" y="-8"/>
      <point x="52.0039" y="69.462"/>
      <point x="52.0039" y="227" type="curve" smooth="yes"/>
      <point x="52.0039" y="234" type="line"/>
      <point x="184.004" y="234" type="line"/>
      <point x="184.004" y="155.868"/>
      <point x="223.212" y="112"/>
      <point x="302.004" y="112" type="curve" smooth="yes"/>
      <point x="403.08" y="112"/>
      <point x="427.004" y="188.633"/>
      <point x="427.004" y="275" type="curve" smooth="yes"/>
      <point x="427.004" y="428" type="line" smooth="yes"/>
      <point x="427.004" y="514.253"/>
      <point x="408.564" y="599"/>
      <point x="304.004" y="599" type="curve" smooth="yes"/>
      <point x="226.576" y="599"/>
      <point x="184.004" y="551.982"/>
      <point x="184.004" y="475" type="curve"/>
      <point x="50.0039" y="475" type="line"/>
      <point x="49.2789" y="633.519"/>
      <point x="149.071" y="717"/>
      <point x="303.004" y="717" type="curve" smooth="yes"/>
      <point x="486.418" y="717"/>
      <point x="562.004" y="609.164"/>
      <point x="562.004" y="435" type="curve" smooth="yes"/>
    </contour>
    <contour>
      <point x="463.004" y="298.5" type="line"/>
      <point x="222.777" y="298.5" type="line"/>
      <point x="222.777" y="415.5" type="line"/>
      <point x="463.004" y="415.5" type="line"/>
    </contour>
  </outline>
</glyph>
<glyph name="zhecyr" format="2">
  <advance width="817"/>
  <unicode hex="0436"/>
  <guideline x="115" y="0" angle="90" name="vertical"/>
  <guideline x="0" y="707" angle="0" name="horizontal"/>
  <guideline x="647" y="0" angle="90" name="vertical"/>
  <guideline x="0" y="707" angle="0" name="horizontal"/>
  <anchor x="647" y="707" name="top"/>
  <outline>
    <component base="kacyr" xOffset="290"/>
    <contour>
      <point x="34" y="532" type="line"/>
      <point x="185" y="532" type="line"/>
      <point x="316" y="333" type="line"/>
      <point x="397" y="333" type="line"/>
      <point x="397" y="222" type="line"/>
      <point x="283" y="222" type="line"/>
      <point x="162" y="0" type="line"/>
      <point x="9" y="0" type="line"/>
      <point x="184" y="320" type="line"/>
    </contour>
  </outline>
</glyph>
<glyph name="zecyr" format="2">
  <advance width="522"/>
  <unicode hex="0437"/>
  <outline>
    <contour>
      <point x="46" y="171" type="line"/>
      <point x="174" y="171" type="line"/>
      <point x="174" y="165" type="line" smooth="yes"/>
      <point x="174" y="130"/>
      <point x="211" y="106"/>
      <point x="265" y="106" type="curve" smooth="yes"/>
      <point x="312" y="106"/>
      <point x="343" y="127"/>
      <point x="343" y="162" type="curve" smooth="yes"/>
      <point x="343" y="167" type="line" smooth="yes"/>
      <point x="343" y="204"/>
      <point x="318" y="223"/>
      <point x="275" y="223" type="curve" smooth="yes"/>
      <point x="214" y="223" type="line"/>
      <point x="214" y="318" type="line"/>
      <point x="261" y="318" type="line" smooth="yes"/>
      <point x="309" y="318"/>
      <point x="334" y="333"/>
      <point x="334" y="371" type="curve" smooth="yes"/>
      <point x="334" y="376" type="line" smooth="yes"/>
      <point x="334" y="404"/>
      <point x="305" y="426"/>
      <point x="262" y="426" type="curve" smooth="yes"/>
      <point x="211" y="426"/>
      <point x="174" y="398"/>
      <point x="174" y="356" type="curve" smooth="yes"/>
      <point x="174" y="351" type="line"/>
      <point x="46" y="351" type="line"/>
      <point x="46" y="360" type="line" smooth="yes"/>
      <point x="46" y="467"/>
      <point x="140" y="539"/>
      <point x="267" y="539" type="curve" smooth="yes"/>
      <point x="389" y="539"/>
      <point x="461" y="482"/>
      <point x="461" y="387" type="curve" smooth="yes"/>
      <point x="461" y="383" type="line" smooth="yes"/>
      <point x="461" y="338"/>
      <point x="437" y="298"/>
      <point x="400" y="280" type="curve"/>
      <point x="439" y="260"/>
      <point x="471" y="216"/>
      <point x="471" y="162" type="curve" smooth="yes"/>
      <point x="471" y="156" type="line" smooth="yes"/>
      <point x="471" y="58"/>
      <point x="387" y="-6"/>
      <point x="259" y="-6" type="curve" smooth="yes"/>
      <point x="130" y="-6"/>
      <point x="46" y="61"/>
      <point x="46" y="163" type="curve" smooth="yes"/>
    </contour>
  </outline>
</glyph>
<glyph name="icyr" format="2">
  <advance width="574"/>
  <unicode hex="0438"/>
  <guideline x="282" y="0" angle="90" name="h1"/>
  <anchor x="282" y="602" name="top"/>
  <outline>
    <contour>
      <point x="393" y="0" type="line"/>
      <point x="519" y="0" type="line"/>
      <point x="519" y="532" type="line"/>
      <point x="413" y="532" type="line"/>
      <point x="404" y="463"/>
      <point x="393" y="348"/>
      <point x="393" y="282" type="curve" smooth="yes"/>
    </contour>
    <contour>
      <point x="55" y="0" type="line"/>
      <point x="161" y="0" type="line"/>
      <point x="171" y="68"/>
      <point x="181" y="184"/>
      <point x="181" y="250" type="curve" smooth="yes"/>
      <point x="181" y="532" type="line"/>
      <point x="55" y="532" type="line"/>
    </contour>
    <contour>
      <point x="141" y="0" type="line"/>
      <point x="191" y="0" type="line"/>
      <point x="355" y="282" type="line" smooth="yes"/>
      <point x="376" y="318"/>
      <point x="385" y="335"/>
      <point x="393" y="354" type="curve"/>
      <point x="433" y="354" type="line"/>
      <point x="433" y="532" type="line"/>
      <point x="383" y="532" type="line"/>
      <point x="218" y="250" type="line" smooth="yes"/>
      <point x="205" y="227"/>
      <point x="192" y="202"/>
      <point x="181" y="179" type="curve"/>
      <point x="141" y="179" type="line"/>
    </contour>
  </outline>
</glyph>
<glyph name="kacyr" format="2">
  <advance width="527"/>
  <unicode hex="043A"/>
  <guideline x="0" y="343" angle="0"/>
  <guideline x="0" y="258" angle="0"/>
  <guideline x="0" y="277" angle="0"/>
  <guideline x="247" y="0" angle="90" name="h1"/>
  <anchor x="247" y="602" name="top"/>
  <outline>
    <contour>
      <point x="55" y="0" type="line"/>
      <point x="182" y="0" type="line"/>
      <point x="182" y="532" type="line"/>
      <point x="55" y="532" type="line"/>
    </contour>
    <contour>
      <point x="161" y="258" type="line"/>
      <point x="299" y="258" type="line"/>
      <point x="493" y="532" type="line"/>
      <point x="342" y="532" type="line"/>
    </contour>
    <contour>
      <point x="365" y="0" type="line"/>
      <point x="518" y="0" type="line"/>
      <point x="341" y="323" type="line"/>
      <point x="224" y="258" type="line"/>
    </contour>
    <contour>
      <point x="130" y="222" type="line"/>
      <point x="319" y="222" type="line"/>
      <point x="319" y="333" type="line"/>
      <point x="130" y="333" type="line"/>
    </contour>
  </outline>
</glyph>
<glyph name="elcyr" format="2">
  <advance width="532"/>
  <unicode hex="043B"/>
  <outline>
    <contour>
      <point x="10.884" y="112.002" type="line"/>
      <point x="43.831" y="112.119"/>
      <point x="71.904" y="148.323"/>
      <point x="77.368" y="203.345" type="curve" smooth="yes"/>
      <point x="110" y="531.994" type="line"/>
      <point x="235" y="531.994" type="line"/>
      <point x="202.068" y="174.144" type="line" smooth="yes"/>
      <point x="190.948" y="53.307"/>
      <point x="132.425" y="0"/>
      <point x="10.884" y="0" type="curve"/>
    </contour>
    <contour>
      <point x="165" y="445" type="line"/>
      <point x="165" y="532" type="line"/>
      <point x="379" y="532" type="line"/>
      <point x="379" y="445" type="line"/>
    </contour>
    <contour>
      <point x="351" y="532" type="line"/>
      <point x="477" y="532" type="line"/>
      <point x="477" y="0" type="line"/>
      <point x="351" y="0" type="line"/>
    </contour>
  </outline>
</glyph>
<glyph name="emcyr" format="2">
  <advance width="713"/>
  <unicode hex="043C"/>
  <outline>
    <contour>
      <point x="551.651" y="532" type="curve"/>
      <point x="657.651" y="532" type="line"/>
      <point x="657.651" y="0" type="line"/>
      <point x="531.651" y="0" type="line"/>
      <point x="531.651" y="282.485" type="line" smooth="yes"/>
      <point x="531.651" y="348.408"/>
      <point x="542.985" y="463.221"/>
    </contour>
    <contour>
      <point x="323.638" y="80" type="line"/>
      <point x="356.987" y="79.761" type="line"/>
      <point x="356.987" y="259.13" type="line"/>
      <point x="354.638" y="259" type="line"/>
      <point x="342.409" y="284"/>
      <point x="329.973" y="306.599"/>
      <point x="317.823" y="330.042" type="curve" smooth="yes"/>
      <point x="213" y="532.289" type="line"/>
      <point x="161.158" y="532.014" type="line"/>
      <point x="161.158" y="353.871" type="line"/>
      <point x="183" y="354.289" type="line"/>
      <point x="194.216" y="330.855"/>
      <point x="198.071" y="323.384"/>
      <point x="219.324" y="282.188" type="curve" smooth="yes"/>
    </contour>
    <contour>
      <point x="54.9996" y="532" type="line"/>
      <point x="54.9996" y="0" type="line"/>
      <point x="181" y="0" type="line"/>
      <point x="181" y="282.485" type="line" smooth="yes"/>
      <point x="181" y="348.408"/>
      <point x="169.666" y="463.221"/>
      <point x="161" y="532" type="curve"/>
    </contour>
    <contour>
      <point x="389.533" y="80" type="line"/>
      <point x="356.184" y="79.761" type="line"/>
      <point x="356.184" y="259.13" type="line"/>
      <point x="358.533" y="259" type="line"/>
      <point x="370.762" y="284"/>
      <point x="383.198" y="306.599"/>
      <point x="395.348" y="330.042" type="curve" smooth="yes"/>
      <point x="500.171" y="532.289" type="line"/>
      <point x="552.013" y="532.014" type="line"/>
      <point x="552.013" y="353.871" type="line"/>
      <point x="530.171" y="354.289" type="line"/>
      <point x="518.955" y="330.855"/>
      <point x="515.1" y="323.384"/>
      <point x="493.847" y="282.188" type="curve" smooth="yes"/>
    </contour>
  </outline>
</glyph>
<glyph name="pecyr" format="2">
  <advance width="544"/>
  <unicode hex="043F"/>
  <anchor x="277" y="532" name="top"/>
  <outline>
    <component base="dotlessi" xOffset="-5"/>
    <component base="dotlessi" xOffset="302.651"/>
    <contour>
      <point x="110" y="445" type="line"/>
      <point x="110" y="532" type="line"/>
      <point x="430.828" y="532" type="line"/>
      <point x="430.828" y="445" type="line"/>
    </contour>
  </outline>
</glyph>
<glyph name="tecyr" format="2">
  <advance width="456"/>
  <unicode hex="0442"/>
  <guideline x="228" y="0" angle="90" name="h1"/>
  <anchor x="228" y="602" name="top"/>
  <outline>
    <contour>
      <point x="18" y="532" type="line"/>
      <point x="438" y="532" type="line"/>
      <point x="438" y="421" type="line"/>
      <point x="292" y="421" type="line"/>
      <point x="292" y="0" type="line"/>
      <point x="165" y="0" type="line"/>
      <point x="165" y="421" type="line"/>
      <point x="18" y="421" type="line"/>
    </contour>
  </outline>
</glyph>
<glyph name="efcyr" format="2">
  <advance width="820"/>
  <unicode hex="0444"/>
  <guideline x="0" y="532" angle="0" name="horizontal"/>
  <guideline x="0" y="707" angle="0" name="horizontal"/>
  <guideline x="0" y="532" angle="0" name="horizontal"/>
  <outline>
    <contour>
      <point x="348" y="707" type="line"/>
      <point x="472" y="707" type="line"/>
      <point x="472" y="478" type="line"/>
      <point x="502" y="517"/>
      <point x="544" y="539"/>
      <point x="594" y="539" type="curve" smooth="yes"/>
      <point x="724" y="539"/>
      <point x="774" y="435"/>
      <point x="774" y="319" type="curve" smooth="yes"/>
      <point x="774" y="214" type="line" smooth="yes"/>
      <point x="774" y="101"/>
      <point x="726" y="-6"/>
      <point x="598" y="-6" type="curve" smooth="yes"/>
      <point x="550" y="-6"/>
      <point x="506" y="10"/>
      <point x="475" y="48" type="curve"/>
      <point x="475" y="-160" type="line"/>
      <point x="345" y="-160" type="line"/>
      <point x="345" y="48" type="line"/>
      <point x="314" y="10"/>
      <point x="270" y="-6"/>
      <point x="222" y="-6" type="curve" smooth="yes"/>
      <point x="94" y="-6"/>
      <point x="46" y="101"/>
      <point x="46" y="214" type="curve" smooth="yes"/>
      <point x="46" y="319" type="line" smooth="yes"/>
      <point x="46" y="435"/>
      <point x="96" y="539"/>
      <point x="226" y="539" type="curve" smooth="yes"/>
      <point x="276" y="539"/>
      <point x="318" y="517"/>
      <point x="348" y="478" type="curve"/>
    </contour>
    <contour>
      <point x="255" y="106" type="curve" smooth="yes"/>
      <point x="322" y="106"/>
      <point x="350" y="159"/>
      <point x="350" y="218" type="curve" smooth="yes"/>
      <point x="350" y="314" type="line" smooth="yes"/>
      <point x="350" y="370"/>
      <point x="323" y="426"/>
      <point x="258" y="426" type="curve" smooth="yes"/>
      <point x="190" y="426"/>
      <point x="173" y="372"/>
      <point x="173" y="314" type="curve" smooth="yes"/>
      <point x="173" y="218" type="line" smooth="yes"/>
      <point x="173" y="162"/>
      <point x="188" y="106"/>
    </contour>
    <contour>
      <point x="565" y="106" type="curve" smooth="yes"/>
      <point x="632" y="106"/>
      <point x="647" y="162"/>
      <point x="647" y="218" type="curve" smooth="yes"/>
      <point x="647" y="314" type="line" smooth="yes"/>
      <point x="647" y="372"/>
      <point x="630" y="426"/>
      <point x="562" y="426" type="curve" smooth="yes"/>
      <point x="497" y="426"/>
      <point x="470" y="370"/>
      <point x="470" y="314" type="curve" smooth="yes"/>
      <point x="470" y="218" type="line" smooth="yes"/>
      <point x="470" y="159"/>
      <point x="498" y="106"/>
    </contour>
  </outline>
</glyph>
<glyph name="tsecyr" format="2">
  <advance width="556"/>
  <unicode hex="0446"/>
  <outline>
    <contour>
      <point x="349" y="0" type="line"/>
      <point x="475" y="0" type="line"/>
      <point x="475" y="532" type="line"/>
      <point x="349" y="532" type="line"/>
    </contour>
    <contour>
      <point x="55" y="0" type="line"/>
      <point x="181" y="0" type="line"/>
      <point x="181" y="532" type="line"/>
      <point x="55" y="532" type="line"/>
    </contour>
    <contour>
      <point x="161" y="0" type="line"/>
      <point x="369" y="0" type="line"/>
      <point x="369" y="111" type="line"/>
      <point x="161" y="111" type="line"/>
    </contour>
    <contour>
      <point x="420" y="-170" type="line"/>
      <point x="546" y="-170" type="line"/>
      <point x="546" y="111" type="line"/>
      <point x="400" y="111" type="line"/>
      <point x="400" y="0" type="line"/>
      <point x="420" y="0" type="line"/>
    </contour>
  </outline>
</glyph>
<glyph name="shacyr" format="2">
  <advance width="780"/>
  <unicode hex="0448"/>
  <outline>
    <contour>
      <point x="423" y="0" type="line"/>
      <point x="631" y="0" type="line"/>
      <point x="631" y="111" type="line"/>
      <point x="423" y="111" type="line"/>
    </contour>
    <contour>
      <point x="151" y="0" type="line"/>
      <point x="359" y="0" type="line"/>
      <point x="359" y="111" type="line"/>
      <point x="151" y="111" type="line"/>
    </contour>
    <contour>
      <point x="599" y="0" type="line"/>
      <point x="725" y="0" type="line"/>
      <point x="725" y="532" type="line"/>
      <point x="599" y="532" type="line"/>
    </contour>
    <contour>
      <point x="327" y="0" type="line"/>
      <point x="453" y="0" type="line"/>
      <point x="453" y="532" type="line"/>
      <point x="327" y="532" type="line"/>
    </contour>
    <contour>
      <point x="55" y="0" type="line"/>
      <point x="181" y="0" type="line"/>
      <point x="181" y="532" type="line"/>
      <point x="55" y="532" type="line"/>
    </contour>
  </outline>
</glyph>
<glyph name="shchacyr" format="2">
  <advance width="806"/>
  <unicode hex="0449"/>
  <outline>
    <contour>
      <point x="55" y="532" type="line"/>
      <point x="181" y="532" type="line"/>
      <point x="181" y="111" type="line"/>
      <point x="327" y="111" type="line"/>
      <point x="327" y="532" type="line"/>
      <point x="453" y="532" type="line"/>
      <point x="453" y="111" type="line"/>
      <point x="599" y="111" type="line"/>
      <point x="599" y="532" type="line"/>
      <point x="725" y="532" type="line"/>
      <point x="725" y="111" type="line"/>
      <point x="796" y="111" type="line"/>
      <point x="796" y="-170" type="line"/>
      <point x="670" y="-170" type="line"/>
      <point x="670" y="0" type="line"/>
      <point x="55" y="0" type="line"/>
    </contour>
  </outline>
</glyph>
<glyph name="hardcyr" format="2">
  <advance width="566"/>
  <unicode hex="044A"/>
  <outline>
    <contour>
      <point x="519.99" y="152.752" type="curve" smooth="yes"/>
      <point x="519.99" y="55.831"/>
      <point x="454.88" y="0"/>
      <point x="341.853" y="0" type="curve" smooth="yes"/>
      <point x="196.112" y="0" type="line"/>
      <point x="196.112" y="87.122" type="line"/>
      <point x="319.921" y="87.039" type="line" smooth="yes"/>
      <point x="366.387" y="87.008"/>
      <point x="392.158" y="112.509"/>
      <point x="392.158" y="159.525" type="curve" smooth="yes"/>
      <point x="392.158" y="206.212"/>
      <point x="364.321" y="227.489"/>
      <point x="319.921" y="227.489" type="curve" smooth="yes"/>
      <point x="196.112" y="227.489" type="line"/>
      <point x="196.112" y="313.539" type="line"/>
      <point x="341.901" y="313.539" type="line" smooth="yes"/>
      <point x="453.127" y="313.539"/>
      <point x="519.99" y="253.172"/>
    </contour>
    <contour>
      <point x="120" y="532" type="line"/>
      <point x="246" y="532" type="line"/>
      <point x="246" y="0" type="line"/>
      <point x="120" y="0" type="line"/>
    </contour>
    <contour>
      <point x="0" y="445" type="line"/>
      <point x="0" y="532" type="line"/>
      <point x="192.064" y="532" type="line"/>
      <point x="192.064" y="445" type="line"/>
    </contour>
  </outline>
</glyph>
<glyph name="softcyr" format="2">
  <advance width="501"/>
  <unicode hex="044C"/>
  <outline>
    <contour>
      <point x="55" y="0" type="line"/>
      <point x="181" y="0" type="line"/>
      <point x="181" y="532" type="line"/>
      <point x="55" y="532" type="line"/>
    </contour>
    <contour>
      <point x="161" y="0" type="line"/>
      <point x="290" y="0" type="line" smooth="yes"/>
      <point x="393" y="0"/>
      <point x="455" y="63"/>
      <point x="455" y="166" type="curve" smooth="yes"/>
      <point x="455" y="270"/>
      <point x="402" y="340"/>
      <point x="285" y="340" type="curve" smooth="yes"/>
      <point x="161" y="340" type="line"/>
      <point x="161" y="229" type="line"/>
      <point x="280" y="229" type="line" smooth="yes"/>
      <point x="308" y="229"/>
      <point x="329" y="205"/>
      <point x="329" y="172" type="curve" smooth="yes"/>
      <point x="329" y="138"/>
      <point x="308" y="111"/>
      <point x="280" y="111" type="curve" smooth="yes"/>
      <point x="161" y="111" type="line"/>
    </contour>
  </outline>
</glyph>
<glyph name="ereversedcyr" format="2">
  <advance width="517"/>
  <unicode hex="044D"/>
  <guideline x="0" y="532" angle="0" name="horizontal"/>
  <guideline x="262" y="0" angle="90" name="h1"/>
  <anchor x="262" y="602" name="top"/>
  <outline>
    <component base="c" xScale="-1" xOffset="517"/>
    <contour>
      <point x="232" y="229" type="line"/>
      <point x="369" y="229" type="line"/>
      <point x="369" y="340" type="line"/>
      <point x="232" y="340" type="line"/>
    </contour>
  </outline>
</glyph>
<glyph name="yucyr" format="2">
  <advance width="732"/>
  <unicode hex="044E"/>
  <guideline x="0" y="532" angle="0" name="horizontal"/>
  <guideline x="118" y="0" angle="90" name="h1"/>
  <guideline x="0" y="532" angle="0" name="horizontal"/>
  <guideline x="436" y="0" angle="90" name="h1"/>
  <anchor x="434" y="602" name="top"/>
  <outline>
    <component base="dotlessi" xOffset="-5"/>
    <component base="o" xOffset="210"/>
    <contour>
      <point x="131" y="229" type="line"/>
      <point x="131" y="340" type="line"/>
      <point x="339" y="340" type="line"/>
      <point x="339" y="229" type="line"/>
    </contour>
  </outline>
</glyph>
<glyph name="yacyr" format="2">
  <advance width="540"/>
  <unicode hex="044F"/>
  <outline>
    <component base="dotlessi" xScale="-1" xOffset="544.99"/>
    <contour>
      <point x="213.058" y="292.931" type="line"/>
      <point x="203.71" y="231.016" type="line"/>
      <point x="133.211" y="251.005"/>
      <point x="88.7721" y="288.279"/>
      <point x="88.7721" y="383.762" type="curve" smooth="yes"/>
      <point x="88.7721" y="484.677"/>
      <point x="164.735" y="532"/>
      <point x="268.333" y="532" type="curve" smooth="yes"/>
      <point x="404.878" y="532" type="line"/>
      <point x="404.878" y="444.854" type="line"/>
      <point x="287.089" y="444.961" type="line" smooth="yes"/>
      <point x="243.917" y="445"/>
      <point x="216.356" y="422.607"/>
      <point x="216.356" y="377.742" type="curve" smooth="yes"/>
      <point x="216.356" y="333.346"/>
      <point x="245.592" y="313.539"/>
      <point x="287.089" y="313.539" type="curve" smooth="yes"/>
      <point x="404.878" y="313.539" type="line"/>
      <point x="404.878" y="227.489" type="line"/>
      <point x="213.209" y="227.489" type="line"/>
      <point x="326.397" y="275.701" type="line"/>
      <point x="173.501" y="0" type="line"/>
      <point x="46.8101" y="0" type="line"/>
    </contour>
  </outline>
</glyph>
<glyph name="eukrcyr" format="2">
  <advance width="517"/>
  <unicode hex="0454"/>
  <outline>
    <contour>
      <point x="350" y="190" type="line"/>
      <point x="350" y="184" type="line" smooth="yes"/>
      <point x="350" y="133"/>
      <point x="315" y="106"/>
      <point x="264" y="106" type="curve" smooth="yes"/>
      <point x="193" y="106"/>
      <point x="172" y="155"/>
      <point x="172" y="218" type="curve" smooth="yes"/>
      <point x="172" y="314" type="line" smooth="yes"/>
      <point x="172" y="376"/>
      <point x="195" y="426"/>
      <point x="264" y="426" type="curve" smooth="yes"/>
      <point x="317" y="426"/>
      <point x="350" y="395"/>
      <point x="350" y="342" type="curve" smooth="yes"/>
      <point x="350" y="339" type="line"/>
      <point x="471" y="339" type="line"/>
      <point x="471" y="344" type="line" smooth="yes"/>
      <point x="471" y="474"/>
      <point x="390" y="539"/>
      <point x="262" y="539" type="curve" smooth="yes"/>
      <point x="119" y="539"/>
      <point x="46" y="456"/>
      <point x="46" y="316" type="curve" smooth="yes"/>
      <point x="46" y="217" type="line" smooth="yes"/>
      <point x="46" y="76"/>
      <point x="118" y="-6"/>
      <point x="262" y="-6" type="curve" smooth="yes"/>
      <point x="381" y="-6"/>
      <point x="471" y="57"/>
      <point x="471" y="183" type="curve" smooth="yes"/>
      <point x="471" y="190" type="line"/>
    </contour>
    <contour>
      <point x="285" y="229" type="line"/>
      <point x="148" y="229" type="line"/>
      <point x="148" y="340" type="line"/>
      <point x="285" y="340" type="line"/>
    </contour>
  </outline>
</glyph>
<glyph name="ljecyr" format="2">
  <advance width="777"/>
  <unicode hex="0459"/>
  <outline>
    <contour>
      <point x="10.884" y="112.002" type="line"/>
      <point x="43.831" y="112.119"/>
      <point x="71.904" y="148.323"/>
      <point x="77.368" y="203.345" type="curve" smooth="yes"/>
      <point x="110" y="531.994" type="line"/>
      <point x="235" y="531.994" type="line"/>
      <point x="202.068" y="174.144" type="line" smooth="yes"/>
      <point x="190.948" y="53.307"/>
      <point x="132.425" y="0"/>
      <point x="10.884" y="0" type="curve"/>
    </contour>
    <contour>
      <point x="165" y="445" type="line"/>
      <point x="165" y="532" type="line"/>
      <point x="379" y="532" type="line"/>
      <point x="379" y="445" type="line"/>
    </contour>
    <contour>
      <point x="351" y="532" type="line"/>
      <point x="477" y="532" type="line"/>
      <point x="477" y="0" type="line"/>
      <point x="351" y="0" type="line"/>
    </contour>
    <contour>
      <point x="730.99" y="152.752" type="curve" smooth="yes"/>
      <point x="730.99" y="55.831"/>
      <point x="665.88" y="0"/>
      <point x="552.853" y="0" type="curve" smooth="yes"/>
      <point x="407.112" y="0" type="line"/>
      <point x="407.112" y="87.122" type="line"/>
      <point x="530.921" y="87.039" type="line" smooth="yes"/>
      <point x="577.387" y="87.008"/>
      <point x="603.158" y="112.509"/>
      <point x="603.158" y="159.525" type="curve" smooth="yes"/>
      <point x="603.158" y="206.212"/>
      <point x="575.321" y="227.489"/>
      <point x="530.921" y="227.489" type="curve" smooth="yes"/>
      <point x="407.112" y="227.489" type="line"/>
      <point x="407.112" y="313.539" type="line"/>
      <point x="552.901" y="313.539" type="line" smooth="yes"/>
      <point x="664.127" y="313.539"/>
      <point x="730.99" y="253.172"/>
    </contour>
    <contour>
      <point x="351" y="532" type="line"/>
      <point x="477" y="532" type="line"/>
      <point x="477" y="0" type="line"/>
      <point x="351" y="0" type="line"/>
    </contour>
  </outline>
</glyph>
<glyph name="tshecyr" format="2">
  <advance width="532"/>
  <unicode hex="045B"/>
  <anchor x="118" y="707" name="top"/>
  <outline>
    <contour>
      <point x="55" y="707" type="line"/>
      <point x="182" y="707" type="line"/>
      <point x="182" y="485" type="line"/>
      <point x="212.789" y="519.536"/>
      <point x="258.925" y="539"/>
      <point x="305" y="539" type="curve" smooth="yes"/>
      <point x="422.366" y="539"/>
      <point x="477" y="457.047"/>
      <point x="477" y="347" type="curve" smooth="yes"/>
      <point x="477" y="0" type="line"/>
      <point x="350" y="0" type="line"/>
      <point x="350" y="332" type="line" smooth="yes"/>
      <point x="350" y="385.874"/>
      <point x="325.006" y="426"/>
      <point x="267" y="426" type="curve" smooth="yes"/>
      <point x="212.067" y="426"/>
      <point x="182" y="383.856"/>
      <point x="182" y="332" type="curve" smooth="yes"/>
      <point x="182" y="0" type="line"/>
      <point x="55" y="0" type="line"/>
    </contour>
    <contour>
      <point x="0" y="668.803" type="line"/>
      <point x="288" y="668.803" type="line"/>
      <point x="288" y="555.803" type="line"/>
      <point x="0" y="555.803" type="line"/>
    </contour>
  </outline>
</glyph>
<glyph name="fi" format="2">
  <advance width="588"/>
  <unicode hex="FB01"/>
  <outline>
    <contour>
      <point x="219" y="532" type="curve"/>
      <point x="314" y="532" type="line"/>
      <point x="314" y="443" type="line"/>
      <point x="219" y="443" type="line"/>
      <point x="219" y="0" type="line"/>
      <point x="93" y="0" type="line"/>
      <point x="93" y="443" type="line"/>
      <point x="37" y="443" type="line"/>
      <point x="37" y="532" type="line"/>
      <point x="93" y="532" type="line"/>
      <point x="93" y="564" type="line" smooth="yes"/>
      <point x="93" y="656.254"/>
      <point x="150.413" y="707"/>
      <point x="241" y="707" type="curve" smooth="yes"/>
      <point x="314" y="707" type="line"/>
      <point x="314" y="621" type="line"/>
      <point x="225.67" y="621"/>
      <point x="219" y="621.624"/>
    </contour>
    <contour>
      <point x="402" y="532" type="line"/>
      <point x="528" y="532" type="line"/>
      <point x="528" y="0" type="line"/>
      <point x="402" y="0" type="line"/>
    </contour>
    <contour>
      <point x="400" y="707" type="line"/>
      <point x="529" y="707" type="line"/>
      <point x="529" y="605" type="line"/>
      <point x="400" y="605" type="line"/>
    </contour>
  </outline>
</glyph>
<glyph name="fl" format="2">
  <advance width="635"/>
  <unicode hex="FB02"/>
  <outline>
    <contour>
      <point x="219" y="532" type="curve"/>
      <point x="314" y="532" type="line"/>
      <point x="314" y="443" type="line"/>
      <point x="219" y="443" type="line"/>
      <point x="219" y="0" type="line"/>
      <point x="93" y="0" type="line"/>
      <point x="93" y="443" type="line"/>
      <point x="37" y="443" type="line"/>
      <point x="37" y="532" type="line"/>
      <point x="93" y="532" type="line"/>
      <point x="93" y="564" type="line" smooth="yes"/>
      <point x="93" y="656.254"/>
      <point x="150.413" y="707"/>
      <point x="241" y="707" type="curve" smooth="yes"/>
      <point x="314" y="707" type="line"/>
      <point x="314" y="621" type="line"/>
      <point x="225.67" y="621"/>
      <point x="219" y="621.624"/>
    </contour>
    <contour>
      <point x="397" y="162" type="curve" smooth="yes"/>
      <point x="397" y="707" type="line"/>
      <point x="524" y="707" type="line"/>
      <point x="524" y="170" type="line" smooth="yes"/>
      <point x="524" y="100.569"/>
      <point x="560.679" y="110"/>
      <point x="617" y="110" type="curve"/>
      <point x="617" y="0" type="line"/>
      <point x="559" y="0" type="line" smooth="yes"/>
      <point x="456.367" y="0"/>
      <point x="397" y="59.207"/>
    </contour>
  </outline>
</glyph>
<glyph name="Decyr.loclBGR" format="2">
  <advance width="703"/>
  <outline>
    <component base="Elcyr.loclBGR" xOffset="42"/>
    <contour>
      <point x="334" y="0" type="line"/>
      <point x="558" y="0" type="line"/>
      <point x="558" y="-170" type="line"/>
      <point x="692" y="-170" type="line"/>
      <point x="692" y="117" type="line"/>
      <point x="334" y="117" type="line"/>
    </contour>
    <contour>
      <point x="214" y="0" type="line"/>
      <point x="354" y="0" type="line"/>
      <point x="354" y="117" type="line"/>
      <point x="214" y="117" type="line"/>
    </contour>
    <contour>
      <point x="11" y="-170" type="line"/>
      <point x="145" y="-170" type="line"/>
      <point x="145" y="0" type="line"/>
      <point x="234" y="0" type="line"/>
      <point x="234" y="117" type="line"/>
      <point x="11" y="117" type="line"/>
    </contour>
  </outline>
</glyph>
<glyph name="gecyr.loclBGR" format="2">
  <advance width="485"/>
  <outline>
    <contour>
      <point x="242" y="539" type="curve" smooth="yes"/>
      <point x="300" y="539"/>
      <point x="348" y="524"/>
      <point x="385" y="494" type="curve" smooth="yes"/>
      <point x="422" y="464"/>
      <point x="441" y="425"/>
      <point x="441" y="374" type="curve" smooth="yes"/>
      <point x="441" y="330"/>
      <point x="428" y="295"/>
      <point x="403" y="271" type="curve" smooth="yes"/>
      <point x="378" y="247"/>
      <point x="338" y="231"/>
      <point x="285" y="222" type="curve" smooth="yes"/>
      <point x="229" y="213" type="line" smooth="yes"/>
      <point x="202" y="209"/>
      <point x="183" y="203"/>
      <point x="171" y="194" type="curve" smooth="yes"/>
      <point x="159" y="185"/>
      <point x="153" y="172"/>
      <point x="153" y="156" type="curve" smooth="yes"/>
      <point x="153" y="136"/>
      <point x="161" y="121"/>
      <point x="177" y="111" type="curve" smooth="yes"/>
      <point x="193" y="101"/>
      <point x="214" y="96"/>
      <point x="242" y="96" type="curve" smooth="yes"/>
      <point x="268" y="96"/>
      <point x="289" y="102"/>
      <point x="305" y="113" type="curve" smooth="yes"/>
      <point x="321" y="124"/>
      <point x="329" y="140"/>
      <point x="329" y="160" type="curve" smooth="yes"/>
      <point x="329" y="162" type="line"/>
      <point x="448" y="162" type="line"/>
      <point x="448" y="158" type="line" smooth="yes"/>
      <point x="448" y="108"/>
      <point x="430" y="68"/>
      <point x="393" y="38" type="curve" smooth="yes"/>
      <point x="356" y="8"/>
      <point x="307" y="-6"/>
      <point x="246" y="-6" type="curve" smooth="yes"/>
      <point x="183" y="-6"/>
      <point x="132" y="8"/>
      <point x="92" y="38" type="curve" smooth="yes"/>
      <point x="52" y="68"/>
      <point x="32" y="110"/>
      <point x="32" y="165" type="curve" smooth="yes"/>
      <point x="32" y="209"/>
      <point x="45" y="244"/>
      <point x="72" y="269" type="curve" smooth="yes"/>
      <point x="99" y="294"/>
      <point x="139" y="310"/>
      <point x="192" y="318" type="curve" smooth="yes"/>
      <point x="255" y="328" type="line" smooth="yes"/>
      <point x="279" y="331"/>
      <point x="295" y="337"/>
      <point x="306" y="346" type="curve" smooth="yes"/>
      <point x="317" y="355"/>
      <point x="322" y="367"/>
      <point x="322" y="383" type="curve" smooth="yes"/>
      <point x="322" y="400"/>
      <point x="316" y="414"/>
      <point x="302" y="424" type="curve" smooth="yes"/>
      <point x="288" y="434"/>
      <point x="268" y="439"/>
      <point x="242" y="439" type="curve" smooth="yes"/>
      <point x="216" y="439"/>
      <point x="196" y="434"/>
      <point x="181" y="424" type="curve" smooth="yes"/>
      <point x="166" y="414"/>
      <point x="159" y="399"/>
      <point x="159" y="381" type="curve" smooth="yes"/>
      <point x="159" y="378" type="line"/>
      <point x="42" y="378" type="line"/>
      <point x="42" y="384" type="line" smooth="yes"/>
      <point x="42" y="413"/>
      <point x="50" y="439"/>
      <point x="67" y="463" type="curve" smooth="yes"/>
      <point x="84" y="487"/>
      <point x="107" y="506"/>
      <point x="137" y="519" type="curve" smooth="yes"/>
      <point x="167" y="532"/>
      <point x="202" y="539"/>
    </contour>
  </outline>
</glyph>
<glyph name="hardcyr.loclBGR" format="2">
  <advance width="561"/>
  <outline>
    <contour>
      <point x="115" y="205" type="line"/>
      <point x="241" y="205" type="line"/>
      <point x="241" y="532" type="line"/>
      <point x="115" y="532" type="line"/>
    </contour>
    <contour>
      <point x="181" y="421" type="line"/>
      <point x="181" y="532" type="line"/>
      <point x="0" y="532" type="line"/>
      <point x="0" y="421" type="line"/>
    </contour>
    <contour>
      <point x="115" y="205" type="line"/>
      <point x="115" y="77"/>
      <point x="201" y="-6"/>
      <point x="329" y="-6" type="curve" smooth="yes"/>
      <point x="464" y="-6"/>
      <point x="545" y="74"/>
      <point x="545" y="195" type="curve" smooth="yes"/>
      <point x="545" y="321"/>
      <point x="462" y="406"/>
      <point x="338" y="406" type="curve" smooth="yes"/>
      <point x="293" y="406"/>
      <point x="256" y="401"/>
      <point x="221" y="390" type="curve"/>
      <point x="221" y="279" type="line"/>
      <point x="257" y="290"/>
      <point x="295" y="295"/>
      <point x="341" y="295" type="curve" smooth="yes"/>
      <point x="389" y="295"/>
      <point x="419" y="260"/>
      <point x="419" y="204" type="curve" smooth="yes"/>
      <point x="419" y="153"/>
      <point x="377" y="105"/>
      <point x="327" y="105" type="curve" smooth="yes"/>
      <point x="281" y="105"/>
      <point x="251" y="144"/>
      <point x="241" y="205" type="curve"/>
    </contour>
  </outline>
</glyph>
<glyph name="icyr.loclBGR" format="2">
  <advance width="532"/>
  <guideline x="266" y="0" angle="90" name="h1"/>
  <anchor x="266" y="602" name="top"/>
  <outline>
    <contour>
      <point x="351" y="242" type="line"/>
      <point x="351" y="221" type="line" smooth="yes"/>
      <point x="351" y="160"/>
      <point x="340" y="106"/>
      <point x="266" y="106" type="curve" smooth="yes"/>
      <point x="194" y="106"/>
      <point x="181" y="162"/>
      <point x="181" y="221" type="curve" smooth="yes"/>
      <point x="181" y="532" type="line"/>
      <point x="55" y="532" type="line"/>
      <point x="55" y="215" type="line" smooth="yes"/>
      <point x="55" y="75"/>
      <point x="109" y="-6"/>
      <point x="226" y="-6" type="curve" smooth="yes"/>
      <point x="344" y="-6"/>
      <point x="397" y="89"/>
      <point x="397" y="215" type="curve" smooth="yes"/>
      <point x="397" y="242" type="line"/>
    </contour>
    <contour>
      <point x="355" y="0" type="line"/>
      <point x="477" y="0" type="line"/>
      <point x="477" y="532" type="line"/>
      <point x="351" y="532" type="line"/>
      <point x="351" y="52" type="line"/>
      <point x="355" y="52" type="line"/>
    </contour>
  </outline>
</glyph>
<glyph name="kacyr.loclBGR" format="2">
  <advance width="532"/>
  <anchor x="118" y="707" name="top"/>
  <outline>
    <contour>
      <point x="182" y="707" type="line"/>
      <point x="182" y="0" type="line"/>
      <point x="55" y="0" type="line"/>
      <point x="55" y="707" type="line"/>
    </contour>
    <contour>
      <point x="172.263" y="257.505" type="line"/>
      <point x="172.263" y="323.324" type="line"/>
      <point x="209.861" y="323.272" type="line"/>
      <point x="372.31" y="532" type="line"/>
      <point x="523.31" y="532" type="line"/>
      <point x="298.755" y="257.505" type="line"/>
    </contour>
    <contour>
      <point x="224.289" y="257.505" type="line"/>
      <point x="340.973" y="323.099" type="line"/>
      <point x="518" y="0" type="line"/>
      <point x="365" y="0" type="line"/>
    </contour>
    <contour>
      <point x="130" y="246" type="line"/>
      <point x="130" y="333" type="line"/>
      <point x="318.745" y="333" type="line"/>
      <point x="318.745" y="246" type="line"/>
    </contour>
  </outline>
</glyph>
<glyph name="nine.tosf" format="2">
  <advance width="524"/>
  <outline>
    <contour>
      <point x="284" y="120" type="line"/>
      <point x="267.587" y="112.645"/>
      <point x="249.866" y="110"/>
      <point x="232" y="110" type="curve" smooth="yes"/>
      <point x="116.379" y="110"/>
      <point x="50" y="188.578"/>
      <point x="50" y="301" type="curve" smooth="yes"/>
      <point x="50" y="333" type="line" smooth="yes"/>
      <point x="50" y="466.025"/>
      <point x="139.297" y="539"/>
      <point x="268" y="539" type="curve" smooth="yes"/>
      <point x="397.721" y="539"/>
      <point x="486" y="471.295"/>
      <point x="486" y="336" type="curve" smooth="yes"/>
      <point x="486" y="305" type="line" smooth="yes"/>
      <point x="486" y="248.854"/>
      <point x="465.996" y="195.961"/>
      <point x="440" y="147" type="curve" smooth="yes"/>
      <point x="277" y="-160" type="line"/>
      <point x="136" y="-160" type="line"/>
    </contour>
    <contour>
      <point x="351" y="306" type="curve" smooth="yes"/>
      <point x="351" y="339" type="line" smooth="yes"/>
      <point x="351" y="391.835"/>
      <point x="323.422" y="429"/>
      <point x="268" y="429" type="curve" smooth="yes"/>
      <point x="212.883" y="429"/>
      <point x="184" y="390.613"/>
      <point x="184" y="338" type="curve" smooth="yes"/>
      <point x="184" y="307" type="line" smooth="yes"/>
      <point x="184" y="254.572"/>
      <point x="213.777" y="218"/>
      <point x="268" y="218" type="curve" smooth="yes"/>
      <point x="322.633" y="218"/>
      <point x="351" y="253.23"/>
    </contour>
  </outline>
</glyph>
<glyph name="seven.dnom" format="2">
  <advance width="298"/>
  <outline>
    <contour>
      <point x="292" y="431" type="line"/>
      <point x="292" y="348" type="line"/>
      <point x="151" y="-11" type="line"/>
      <point x="38" y="-11" type="line"/>
      <point x="178" y="339" type="line"/>
      <point x="8" y="339" type="line"/>
      <point x="8" y="431" type="line"/>
    </contour>
  </outline>
</glyph>
<glyph name="shacyr.loclBGR" format="2">
  <advance width="827"/>
  <outline>
    <contour>
      <point x="772" y="532" type="line"/>
      <point x="645" y="532" type="line"/>
      <point x="645" y="200" type="line" smooth="yes"/>
      <point x="645" y="148"/>
      <point x="615" y="106"/>
      <point x="560" y="106" type="curve" smooth="yes"/>
      <point x="503" y="106"/>
      <point x="477" y="147"/>
      <point x="477" y="200" type="curve" smooth="yes"/>
      <point x="477" y="532" type="line"/>
      <point x="350" y="532" type="line"/>
      <point x="350" y="197" type="line" smooth="yes"/>
      <point x="350" y="145"/>
      <point x="319" y="106"/>
      <point x="265" y="106" type="curve" smooth="yes"/>
      <point x="208" y="106"/>
      <point x="182" y="147"/>
      <point x="182" y="200" type="curve" smooth="yes"/>
      <point x="182" y="532" type="line"/>
      <point x="55" y="532" type="line"/>
      <point x="55" y="185" type="line" smooth="yes"/>
      <point x="55" y="73"/>
      <point x="118" y="-7"/>
      <point x="235" y="-7" type="curve" smooth="yes"/>
      <point x="294" y="-7"/>
      <point x="346" y="17"/>
      <point x="386" y="60" type="curve"/>
      <point x="418" y="14"/>
      <point x="467" y="-7"/>
      <point x="522" y="-7" type="curve" smooth="yes"/>
      <point x="569" y="-7"/>
      <point x="616" y="14"/>
      <point x="648" y="48" type="curve"/>
      <point x="648" y="0" type="line"/>
      <point x="772" y="0" type="line"/>
    </contour>
  </outline>
</glyph>
<glyph name="shchacyr.loclBGR" format="2">
  <advance width="856"/>
  <outline>
    <component base="shacyr.loclBGR"/>
    <contour>
      <point x="730" y="-170" type="line"/>
      <point x="856" y="-170" type="line"/>
      <point x="856" y="111" type="line"/>
      <point x="710" y="111" type="line"/>
      <point x="710" y="0" type="line"/>
      <point x="730" y="0" type="line"/>
    </contour>
  </outline>
</glyph>
<glyph name="softcyr.loclBGR" format="2">
  <advance width="540"/>
  <outline>
    <contour>
      <point x="55" y="205" type="line"/>
      <point x="181" y="205" type="line"/>
      <point x="181" y="532" type="line"/>
      <point x="55" y="532" type="line"/>
    </contour>
    <contour>
      <point x="55" y="205" type="line"/>
      <point x="55" y="77"/>
      <point x="141" y="-6"/>
      <point x="269" y="-6" type="curve" smooth="yes"/>
      <point x="404" y="-6"/>
      <point x="485" y="74"/>
      <point x="485" y="195" type="curve" smooth="yes"/>
      <point x="485" y="321"/>
      <point x="402" y="406"/>
      <point x="278" y="406" type="curve" smooth="yes"/>
      <point x="233" y="406"/>
      <point x="196" y="401"/>
      <point x="161" y="390" type="curve"/>
      <point x="161" y="279" type="line"/>
      <point x="197" y="290"/>
      <point x="235" y="295"/>
      <point x="281" y="295" type="curve" smooth="yes"/>
      <point x="329" y="295"/>
      <point x="359" y="260"/>
      <point x="359" y="204" type="curve" smooth="yes"/>
      <point x="359" y="153"/>
      <point x="317" y="105"/>
      <point x="267" y="105" type="curve" smooth="yes"/>
      <point x="221" y="105"/>
      <point x="191" y="144"/>
      <point x="181" y="205" type="curve"/>
    </contour>
  </outline>
</glyph>
<glyph name="t_t" format="2">
  <advance width="689"/>
  <outline>
    <contour>
      <point x="554" y="443" type="line"/>
      <point x="554" y="162" type="line" smooth="yes"/>
      <point x="554" y="100.089"/>
      <point x="599.924" y="108"/>
      <point x="646" y="108" type="curve"/>
      <point x="646" y="0" type="line"/>
      <point x="586" y="0" type="line" smooth="yes"/>
      <point x="490.788" y="0"/>
      <point x="428" y="56.846"/>
      <point x="428" y="154" type="curve" smooth="yes"/>
      <point x="428" y="443" type="line"/>
      <point x="225" y="443" type="line"/>
      <point x="225" y="162" type="line" smooth="yes"/>
      <point x="225" y="100.744"/>
      <point x="271.627" y="108"/>
      <point x="317" y="108" type="curve"/>
      <point x="317" y="0" type="line"/>
      <point x="257" y="0" type="line" smooth="yes"/>
      <point x="161.788" y="0"/>
      <point x="99" y="56.846"/>
      <point x="99" y="154" type="curve" smooth="yes"/>
      <point x="99" y="443" type="line"/>
      <point x="26" y="443" type="line"/>
      <point x="26" y="532" type="line"/>
      <point x="99" y="532" type="line"/>
      <point x="99" y="637" type="line"/>
      <point x="225" y="681" type="line"/>
      <point x="225" y="532" type="line"/>
      <point x="428" y="532" type="line"/>
      <point x="428" y="637" type="line"/>
      <point x="554" y="681" type="line"/>
      <point x="554" y="532" type="line"/>
      <point x="656" y="532" type="line"/>
      <point x="656" y="443" type="line"/>
    </contour>
  </outline>
</glyph>
<glyph name="three.dnom" format="2">
  <advance width="349"/>
  <outline>
    <contour>
      <point x="73" y="23" type="curve" smooth="yes"/>
      <point x="49" y="43"/>
      <point x="38" y="71"/>
      <point x="38" y="109" type="curve" smooth="yes"/>
      <point x="38" y="124" type="line"/>
      <point x="133" y="124" type="line"/>
      <point x="133" y="114" type="line" smooth="yes"/>
      <point x="133" y="91"/>
      <point x="146" y="80"/>
      <point x="171" y="80" type="curve" smooth="yes"/>
      <point x="182" y="80"/>
      <point x="191" y="84"/>
      <point x="197" y="91" type="curve" smooth="yes"/>
      <point x="203" y="98"/>
      <point x="207" y="108"/>
      <point x="207" y="121" type="curve" smooth="yes"/>
      <point x="207" y="130" type="line" smooth="yes"/>
      <point x="207" y="161"/>
      <point x="192" y="176"/>
      <point x="163" y="176" type="curve" smooth="yes"/>
      <point x="141" y="176" type="line"/>
      <point x="141" y="263" type="line"/>
      <point x="162" y="263" type="line" smooth="yes"/>
      <point x="174" y="263"/>
      <point x="184" y="266"/>
      <point x="190" y="273" type="curve" smooth="yes"/>
      <point x="196" y="280"/>
      <point x="200" y="290"/>
      <point x="200" y="302" type="curve" smooth="yes"/>
      <point x="200" y="310" type="line" smooth="yes"/>
      <point x="200" y="335"/>
      <point x="189" y="348"/>
      <point x="168" y="348" type="curve" smooth="yes"/>
      <point x="145" y="348"/>
      <point x="134" y="337"/>
      <point x="134" y="316" type="curve" smooth="yes"/>
      <point x="134" y="305" type="line"/>
      <point x="40" y="305" type="line"/>
      <point x="40" y="315" type="line" smooth="yes"/>
      <point x="40" y="353"/>
      <point x="52" y="383"/>
      <point x="75" y="404" type="curve" smooth="yes"/>
      <point x="98" y="425"/>
      <point x="130" y="436"/>
      <point x="172" y="436" type="curve" smooth="yes"/>
      <point x="212" y="436"/>
      <point x="244" y="425"/>
      <point x="267" y="404" type="curve" smooth="yes"/>
      <point x="290" y="383"/>
      <point x="301" y="354"/>
      <point x="301" y="319" type="curve" smooth="yes"/>
      <point x="301" y="310" type="line" smooth="yes"/>
      <point x="301" y="273"/>
      <point x="285" y="246"/>
      <point x="254" y="228" type="curve"/>
      <point x="272" y="221"/>
      <point x="285" y="210"/>
      <point x="294" y="193" type="curve" smooth="yes"/>
      <point x="303" y="176"/>
      <point x="308" y="155"/>
      <point x="308" y="132" type="curve" smooth="yes"/>
      <point x="308" y="121" type="line" smooth="yes"/>
      <point x="308" y="82"/>
      <point x="295" y="51"/>
      <point x="270" y="28" type="curve" smooth="yes"/>
      <point x="245" y="5"/>
      <point x="213" y="-7"/>
      <point x="174" y="-7" type="curve" smooth="yes"/>
      <point x="130" y="-7"/>
      <point x="97" y="3"/>
    </contour>
  </outline>
</glyph>
<glyph name="three.numr" format="2">
  <advance width="349"/>
  <outline>
    <contour>
      <point x="38" y="401" type="curve"/>
      <point x="133" y="401" type="line"/>
      <point x="133" y="372.371"/>
      <point x="138.44" y="357"/>
      <point x="171" y="357" type="curve" smooth="yes"/>
      <point x="202.218" y="357"/>
      <point x="207" y="383.112"/>
      <point x="207" y="408" type="curve" smooth="yes"/>
      <point x="207" y="454.728"/>
      <point x="177.968" y="454"/>
      <point x="141" y="454" type="curve"/>
      <point x="141" y="541" type="line"/>
      <point x="180.989" y="541"/>
      <point x="200" y="541.355"/>
      <point x="200" y="588" type="curve" smooth="yes"/>
      <point x="200" y="609.447"/>
      <point x="191.541" y="626"/>
      <point x="168" y="626" type="curve" smooth="yes"/>
      <point x="136.81" y="626"/>
      <point x="134" y="609.021"/>
      <point x="134" y="583" type="curve"/>
      <point x="40" y="583" type="line"/>
      <point x="40" y="593" type="line" smooth="yes"/>
      <point x="40" y="674.128"/>
      <point x="94.933" y="714"/>
      <point x="172" y="714" type="curve" smooth="yes"/>
      <point x="254.246" y="714"/>
      <point x="301" y="670.697"/>
      <point x="301" y="588" type="curve" smooth="yes"/>
      <point x="301" y="551.943"/>
      <point x="285.228" y="524.113"/>
      <point x="254" y="506" type="curve"/>
      <point x="299.618" y="488.289"/>
      <point x="308" y="441.332"/>
      <point x="308" y="398" type="curve" smooth="yes"/>
      <point x="308" y="319.408"/>
      <point x="250.644" y="270"/>
      <point x="174" y="270" type="curve" smooth="yes"/>
      <point x="81.825" y="270"/>
      <point x="38" y="308.459"/>
    </contour>
  </outline>
</glyph>
<glyph name="tsecyr.loclBGR" format="2">
  <advance width="546"/>
  <outline>
    <component base="icyr.loclBGR"/>
    <contour>
      <point x="420" y="-170" type="line"/>
      <point x="546" y="-170" type="line"/>
      <point x="546" y="111" type="line"/>
      <point x="400" y="111" type="line"/>
      <point x="400" y="0" type="line"/>
      <point x="420" y="0" type="line"/>
    </contour>
  </outline>
</glyph>
<glyph name="vecyr.loclBGR" format="2">
  <advance width="530"/>
  <outline>
    <contour>
      <point x="255" y="596" type="curve" smooth="yes"/>
      <point x="209" y="596"/>
      <point x="181" y="554"/>
      <point x="181" y="514" type="curve"/>
      <point x="181" y="420" type="line"/>
      <point x="258" y="420" type="line" smooth="yes"/>
      <point x="300" y="420"/>
      <point x="329" y="457"/>
      <point x="329" y="510" type="curve" smooth="yes"/>
      <point x="329" y="562"/>
      <point x="300" y="596"/>
    </contour>
    <contour>
      <point x="288" y="309" type="curve" smooth="yes"/>
      <point x="181" y="309" type="line"/>
      <point x="181" y="200" type="line"/>
      <point x="181" y="132"/>
      <point x="224" y="106"/>
      <point x="266" y="106" type="curve" smooth="yes"/>
      <point x="326" y="106"/>
      <point x="349" y="144"/>
      <point x="349" y="219" type="curve" smooth="yes"/>
      <point x="349" y="254"/>
      <point x="322" y="309"/>
    </contour>
    <contour>
      <point x="270" y="707" type="curve" smooth="yes"/>
      <point x="364" y="707"/>
      <point x="455" y="633"/>
      <point x="455" y="535" type="curve" smooth="yes"/>
      <point x="455" y="477"/>
      <point x="436" y="428"/>
      <point x="393" y="388" type="curve"/>
      <point x="446" y="367"/>
      <point x="475" y="305"/>
      <point x="475" y="230" type="curve" smooth="yes"/>
      <point x="475" y="71"/>
      <point x="403" y="-6"/>
      <point x="269" y="-6" type="curve" smooth="yes"/>
      <point x="133" y="-6"/>
      <point x="55" y="64"/>
      <point x="55" y="200" type="curve"/>
      <point x="55" y="514" type="line"/>
      <point x="55" y="629"/>
      <point x="130" y="707"/>
    </contour>
  </outline>
</glyph>
<glyph name="yucyr.loclBGR" format="2">
  <advance width="732"/>
  <guideline x="0" y="532" angle="0" name="horizontal"/>
  <guideline x="123" y="0" angle="90" name="h1"/>
  <guideline x="0" y="532" angle="0" name="horizontal"/>
  <guideline x="454" y="0" angle="90" name="h1"/>
  <anchor x="452" y="602" name="top"/>
  <outline>
    <component base="o" xOffset="210"/>
    <contour>
      <point x="55" y="0" type="line"/>
      <point x="181" y="0" type="line"/>
      <point x="181" y="707" type="line"/>
      <point x="55" y="707" type="line"/>
    </contour>
    <contour>
      <point x="131" y="229" type="line"/>
      <point x="339" y="229" type="line"/>
      <point x="339" y="340" type="line"/>
      <point x="131" y="340" type="line"/>
    </contour>
  </outline>
</glyph>
<glyph name="zero.sups" format="2">
  <advance width="358"/>
  <outline>
    <contour>
      <point x="41" y="586" type="curve" smooth="yes"/>
      <point x="41" y="731" type="line" smooth="yes"/>
      <point x="41" y="822.142"/>
      <point x="84.94" y="876"/>
      <point x="179" y="876" type="curve" smooth="yes"/>
      <point x="276.067" y="876"/>
      <point x="316" y="825.129"/>
      <point x="316" y="731" type="curve" smooth="yes"/>
      <point x="316" y="586" type="line" smooth="yes"/>
      <point x="316" y="492.426"/>
      <point x="279.044" y="433"/>
      <point x="179" y="433" type="curve" smooth="yes"/>
      <point x="78.332" y="433"/>
      <point x="41" y="491.453"/>
    </contour>
    <contour>
      <point x="211" y="591" type="curve" smooth="yes"/>
      <point x="211" y="718" type="line" smooth="yes"/>
      <point x="211" y="743.902"/>
      <point x="214.639" y="785"/>
      <point x="179" y="785" type="curve" smooth="yes"/>
      <point x="144.011" y="785"/>
      <point x="146" y="743.832"/>
      <point x="146" y="718" type="curve" smooth="yes"/>
      <point x="146" y="591" type="line" smooth="yes"/>
      <point x="146" y="564.983"/>
      <point x="143.023" y="524"/>
      <point x="179" y="524" type="curve" smooth="yes"/>
      <point x="215.975" y="524"/>
      <point x="211" y="564.201"/>
    </contour>
  </outline>
</glyph>
<glyph name="zhecyr.loclBGR" format="2">
  <advance width="817"/>
  <guideline x="119" y="0" angle="90" name="vertical"/>
  <guideline x="0" y="707" angle="0" name="horizontal"/>
  <guideline x="651" y="0" angle="90" name="vertical"/>
  <guideline x="0" y="707" angle="0" name="horizontal"/>
  <anchor x="651" y="707" name="top"/>
  <outline>
    <contour>
      <point x="345" y="0" type="line"/>
      <point x="472" y="0" type="line"/>
      <point x="472" y="707" type="line"/>
      <point x="345" y="707" type="line"/>
    </contour>
    <contour>
      <point x="451" y="258" type="line"/>
      <point x="589" y="258" type="line"/>
      <point x="783" y="532" type="line"/>
      <point x="632" y="532" type="line"/>
    </contour>
    <contour>
      <point x="655" y="0" type="line"/>
      <point x="808" y="0" type="line"/>
      <point x="631" y="323" type="line"/>
      <point x="514" y="258" type="line"/>
    </contour>
    <contour>
      <point x="420" y="222" type="line"/>
      <point x="609" y="222" type="line"/>
      <point x="609" y="333" type="line"/>
      <point x="420" y="333" type="line"/>
    </contour>
    <contour>
      <point x="228" y="258" type="line"/>
      <point x="366" y="258" type="line"/>
      <point x="185" y="532" type="line"/>
      <point x="34" y="532" type="line"/>
    </contour>
    <contour>
      <point x="9" y="0" type="line"/>
      <point x="162" y="0" type="line"/>
      <point x="303" y="258" type="line"/>
      <point x="186" y="323" type="line"/>
    </contour>
    <contour>
      <point x="208" y="222" type="line"/>
      <point x="397" y="222" type="line"/>
      <point x="397" y="333" type="line"/>
      <point x="208" y="333" type="line"/>
    </contour>
  </outline>
</glyph>
